<svg xmlns="http://www.w3.org/2000/svg" height="1000" width="1000" version="1.1" xmlns:xlink="http://www.w3.org/1999/xlink" xmlns:svgjs="http://svgjs.com/svgjs"><rect fill="#fff" width="1000" height="1000"></rect><g><path d="M744.52 476.35C704.85 379.33 609.21 311.07 497.64 311.07 408.07 311.07 329.07 355.08 280.73 422.64L258.73 459.37C258.73 459.72 258.39 460.07 258.39 460.41 231.7 514.47 272.07 577.7 332.36 577.7H578.37C570.75 577.7 564 583.07 563.3 590.7 562.61 599.36 569.37 606.63 577.68 606.63H610.95C610.95 606.63 611.29 606.98 610.95 606.98 603.67 608.37 598.64 614.95 599.34 622.57 600.03 630.2 606.96 635.57 614.41 635.57H652.01L690.99 683.21C693.93 686.85 698.61 688.93 703.29 688.93 715.24 688.93 722.69 676.63 717.67 665.89L675.74 577.88C728.23 577.7 764.27 524.69 744.52 476.35Z" fill="#fff" stroke="#000000" stroke-width="2" stroke-linecap="round" stroke-linejoin="round" opacity="1"></path><path d="M451.73 436.68V408.78H539.05V496.1H451.73V447.42" fill="#fff" opacity="1" stroke-width="2" stroke="#000000"></path><path d="M451.73 436.68V408.78H539.05V496.1H451.73V447.42" stroke="#000000" stroke-width="2" stroke-linecap="round" stroke-linejoin="round" opacity="1" fill="none"></path><path d="M495.39 496.1V526.07" stroke="#000000" stroke-width="2" stroke-linecap="round" stroke-linejoin="round" opacity="1" fill="none"></path><path d="M451.73 548.08C456.51 548.08 460.39 544.2 460.39 539.41 460.39 534.63 456.51 530.75 451.73 530.75 446.93 530.75 443.07 534.63 443.07 539.41 443.07 544.2 446.93 548.08 451.73 548.08Z" stroke="#000000" stroke-width="2" stroke-linecap="round" stroke-linejoin="round" opacity="1" fill="none"></path><path d="M519.99 548.42C515.31 548.42 511.33 544.44 511.33 539.76 511.33 535.08 515.31 531.1 519.99 531.1 524.67 531.1 528.65 535.08 528.65 539.76 528.65 541.84 527.96 543.75 526.57 545.13" stroke="#000000" stroke-width="2" stroke-linecap="round" stroke-linejoin="round" opacity="1" fill="none"></path><path d="M563.3 381.07C568.08 381.07 571.96 377.18 571.96 372.4 571.96 367.62 568.08 363.74 563.3 363.74 558.5 363.74 554.64 367.62 554.64 372.4 554.64 377.18 558.5 381.07 563.3 381.07Z" stroke="#000000" stroke-width="2" stroke-linecap="round" stroke-linejoin="round" opacity="1" fill="none"></path><path d="M472 372.4C476.78 372.4 480.66 368.52 480.66 363.74 480.66 358.96 476.78 355.08 472 355.08 467.22 355.08 463.34 358.96 463.34 363.74 463.34 368.52 467.22 372.4 472 372.4Z" stroke="#000000" stroke-width="2" stroke-linecap="round" stroke-linejoin="round" opacity="1" fill="none"></path><path d="M457.62 532.66L470.96 519.66V496.1" stroke="#000000" stroke-width="2" stroke-linecap="round" stroke-linejoin="round" opacity="1" fill="none"></path><path d="M403.39 482.07C408.18 482.07 412.06 478.19 412.06 473.41 412.06 468.62 408.18 464.74 403.39 464.74 398.6 464.74 394.73 468.62 394.73 473.41 394.73 478.19 398.6 482.07 403.39 482.07Z" stroke="#000000" stroke-width="2" stroke-linecap="round" stroke-linejoin="round" opacity="1" fill="none"></path><path d="M403.39 440.32C408.18 440.32 412.06 436.44 412.06 431.65 412.06 426.87 408.18 422.99 403.39 422.99 398.6 422.99 394.73 426.87 394.73 431.65 394.73 436.44 398.6 440.32 403.39 440.32Z" stroke="#000000" stroke-width="2" stroke-linecap="round" stroke-linejoin="round" opacity="1" fill="none"></path><path d="M412.06 473.41H451.73" stroke="#000000" stroke-width="2" stroke-linecap="round" stroke-linejoin="round" opacity="1" fill="none"></path><path d="M412.06 431.65H451.73" stroke="#000000" stroke-width="2" stroke-linecap="round" stroke-linejoin="round" opacity="1" fill="none"></path><path d="M587.56 440.32C592.34 440.32 596.22 436.44 596.22 431.65 596.22 426.87 592.34 422.99 587.56 422.99 582.76 422.99 578.89 426.87 578.89 431.65 578.89 436.44 582.76 440.32 587.56 440.32Z" stroke="#000000" stroke-width="2" stroke-linecap="round" stroke-linejoin="round" opacity="1" fill="none"></path><path d="M587.56 482.07C592.34 482.07 596.22 478.19 596.22 473.41 596.22 468.62 592.34 464.74 587.56 464.74 582.76 464.74 578.89 468.62 578.89 473.41 578.89 478.19 582.76 482.07 587.56 482.07Z" stroke="#000000" stroke-width="2" stroke-linecap="round" stroke-linejoin="round" opacity="1" fill="none"></path><path d="M578.89 431.65H539.05" stroke="#000000" stroke-width="2" stroke-linecap="round" stroke-linejoin="round" opacity="1" fill="none"></path><path d="M578.89 473.41H539.05" stroke="#000000" stroke-width="2" stroke-linecap="round" stroke-linejoin="round" opacity="1" fill="none"></path><path d="M519.99 496.1V531.44" stroke="#000000" stroke-width="2" stroke-linecap="round" stroke-linejoin="round" opacity="1" fill="none"></path><path d="M519.99 408.78V372.4H554.29" stroke="#000000" stroke-width="2" stroke-linecap="round" stroke-linejoin="round" opacity="1" fill="none"></path><path d="M472 408.78V372.4" stroke="#000000" stroke-width="2" stroke-linecap="round" stroke-linejoin="round" opacity="1" fill="none"></path><path d="M495.39 408.78V382.8" stroke="#000000" stroke-width="2" stroke-linecap="round" stroke-linejoin="round" opacity="1" fill="none"></path><path d="M613.02 577.7H637.28" stroke="#000000" stroke-width="2" stroke-linecap="round" stroke-linejoin="round" opacity="1" fill="none"></path><path d="M578.37 577.7H600.55" stroke="#000000" stroke-width="2" stroke-linecap="round" stroke-linejoin="round" opacity="1" fill="none"></path><path d="M631.56 606.63H610.95" stroke="#000000" stroke-width="2" stroke-linecap="round" stroke-linejoin="round" opacity="1" fill="none"></path><path d="M675.91 577.7H658.94" stroke="#000000" stroke-width="2" stroke-linecap="round" stroke-linejoin="round" opacity="1" fill="none"></path></g></svg>