<svg xmlns="http://www.w3.org/2000/svg" height="1000" width="1000" version="1.1" xmlns:xlink="http://www.w3.org/1999/xlink" xmlns:svgjs="http://svgjs.com/svgjs"><rect fill="rgba(0,0,0,0)" width="1000" height="1000"></rect><g><path d="M443.99 295.57H689.76C693.33 295.57 696.85 296.33 700.1 297.79 703.35 299.24 706.25 301.38 708.62 304.04 710.99 306.7 712.77 309.84 713.83 313.23 714.9 316.63 715.24 320.22 714.82 323.76L672.38 682.12C671.65 688.25 668.71 693.91 664.09 698.03 659.47 702.14 653.51 704.41 647.33 704.43H401.56C397.99 704.43 394.48 703.68 391.22 702.21 387.97 700.76 385.08 698.62 382.7 695.96 380.34 693.3 378.56 690.16 377.5 686.77 376.42 683.37 376.09 679.78 376.5 676.24L418.94 317.88C419.64 311.74 422.59 306.06 427.21 301.94 431.83 297.82 437.81 295.56 443.99 295.57V295.57Z" fill="#113d59" opacity="1" stroke-width="3" stroke="none"></path><path d="M437.49 478.16L536.93 374.26C537.92 373.23 539.12 372.46 540.47 372 541.81 371.54 543.24 371.41 544.64 371.61 546.04 371.82 547.38 372.36 548.53 373.18 549.68 374.01 550.62 375.11 551.26 376.37L561.91 397.28C562.55 398.54 563.48 399.65 564.63 400.48 565.78 401.32 567.11 401.86 568.52 402.06 569.93 402.27 571.36 402.14 572.7 401.67 574.05 401.21 575.26 400.42 576.23 399.39L639.81 333" stroke="#3b607f" stroke-width="3" stroke-linecap="round" stroke-linejoin="round" opacity="1" fill="none"></path><path d="M401.56 646.02L451.59 593.72C452.57 592.69 453.78 591.9 455.12 591.44 456.47 590.97 457.9 590.84 459.31 591.05 460.71 591.25 462.05 591.8 463.2 592.63 464.35 593.46 465.28 594.57 465.92 595.83L476.56 616.74C477.21 618.01 478.14 619.11 479.29 619.94 480.44 620.78 481.77 621.32 483.18 621.52 484.59 621.73 486.02 621.6 487.36 621.13 488.71 620.67 489.92 619.89 490.89 618.85L554.47 552.46" stroke="#3b607f" stroke-width="3" stroke-linecap="round" stroke-linejoin="round" opacity="1" fill="none"></path><path d="M520.57 415.75H638.4C639.79 415.75 641.16 416.04 642.43 416.61 643.69 417.18 644.81 418.01 645.73 419.04 646.65 420.08 647.34 421.3 647.75 422.62 648.16 423.94 648.28 425.34 648.11 426.72L642.24 475.96C641.95 478.34 640.81 480.52 639.01 482.11 637.23 483.69 634.93 484.57 632.53 484.58H514.69C513.31 484.58 511.94 484.29 510.68 483.72 509.42 483.15 508.29 482.32 507.37 481.29 506.45 480.25 505.76 479.03 505.35 477.71 504.94 476.39 504.82 474.99 504.99 473.61L510.86 424.37C511.14 421.99 512.28 419.8 514.08 418.21 515.86 416.62 518.18 415.75 520.57 415.75V415.75Z" fill="#3b607f" opacity="1" stroke-width="3" stroke="none"></path><path d="M539.51 462.42C545.96 462.42 551.18 457.2 551.18 450.75 551.18 444.31 545.96 439.09 539.51 439.09 533.07 439.09 527.85 444.31 527.85 450.75 527.85 457.2 533.07 462.42 539.51 462.42Z" stroke="#ffffff" stroke-width="3" stroke-linecap="round" stroke-linejoin="round" opacity="1" fill="none"></path><path d="M577.17 438.62C580.27 438.62 583.23 439.85 585.43 442.03 587.61 444.22 588.84 447.19 588.84 450.28 588.84 453.37 587.61 456.34 585.43 458.53 583.23 460.72 580.27 461.95 577.17 461.95" stroke="#ffffff" stroke-width="3" stroke-linecap="round" stroke-linejoin="round" opacity="1" fill="none"></path><path d="M614.83 439.16C617.14 439.16 619.4 439.85 621.32 441.13 623.24 442.41 624.73 444.24 625.62 446.37 626.5 448.5 626.73 450.85 626.28 453.11 625.83 455.37 624.72 457.45 623.09 459.08 621.46 460.71 619.38 461.82 617.11 462.27 614.85 462.72 612.5 462.49 610.37 461.61 608.24 460.73 606.42 459.23 605.13 457.31 603.86 455.39 603.17 453.14 603.17 450.83" stroke="#ffffff" stroke-width="3" stroke-linecap="round" stroke-linejoin="round" opacity="1" fill="none"></path><path d="M577.33 457.49C581.39 457.49 584.69 454.19 584.69 450.13 584.69 446.06 581.39 442.77 577.33 442.77 573.27 442.77 569.97 446.06 569.97 450.13 569.97 454.19 573.27 457.49 577.33 457.49Z" fill="#6286a6" opacity="1" stroke-width="3" stroke="none"></path><path d="M614.83 458.19C618.91 458.19 622.19 454.89 622.19 450.83 622.19 446.77 618.91 443.47 614.83 443.47 610.77 443.47 607.47 446.77 607.47 450.83 607.47 454.89 610.77 458.19 614.83 458.19Z" fill="#6286a6" opacity="1" stroke-width="3" stroke="none"></path><path d="M539.51 458.19C543.59 458.19 546.87 454.89 546.87 450.83 546.87 446.77 543.59 443.47 539.51 443.47 535.45 443.47 532.15 446.77 532.15 450.83 532.15 454.89 535.45 458.19 539.51 458.19Z" fill="#6286a6" opacity="1" stroke-width="3" stroke="none"></path><path d="M551.26 507.28H652.49C653.97 507.29 655.42 507.6 656.76 508.21 658.11 508.82 659.31 509.69 660.28 510.8 661.26 511.9 661.99 513.19 662.43 514.6 662.87 516 663 517.48 662.83 518.95L645.37 666.53C645.06 669.06 643.85 671.39 641.94 673.08 640.04 674.76 637.58 675.7 635.03 675.7H533.72C532.26 675.7 530.81 675.38 529.47 674.78 528.14 674.18 526.94 673.31 525.96 672.21 524.99 671.12 524.25 669.83 523.81 668.44 523.37 667.04 523.22 665.56 523.39 664.11L540.85 516.52C541.15 513.98 542.38 511.63 544.3 509.93 546.22 508.22 548.7 507.28 551.26 507.28V507.28Z" fill="#ffffff" opacity="1" stroke-width="3" stroke="none"></path><path d="M573.65 548.47L559.17 657.06" stroke="#f1f1f1" stroke-width="3" stroke-linecap="round" stroke-linejoin="round" opacity="1" fill="none"></path><path d="M600.35 548.47L585.94 657.06" stroke="#f1f1f1" stroke-width="3" stroke-linecap="round" stroke-linejoin="round" opacity="1" fill="none"></path><path d="M627.05 548.47L612.64 657.06" stroke="#f1f1f1" stroke-width="3" stroke-linecap="round" stroke-linejoin="round" opacity="1" fill="none"></path><path d="M538.57 631.62H639.89" stroke="#f1f1f1" stroke-width="3" stroke-linecap="round" stroke-linejoin="round" opacity="1" fill="none"></path><path d="M542.49 603.43H643.8" stroke="#f1f1f1" stroke-width="3" stroke-linecap="round" stroke-linejoin="round" opacity="1" fill="none"></path><path d="M546.33 575.16H647.64" stroke="#f1f1f1" stroke-width="3" stroke-linecap="round" stroke-linejoin="round" opacity="1" fill="none"></path><path d="M573.65 580.25L587.9 597.79" stroke="#8aaed0" stroke-width="3" stroke-linecap="round" stroke-linejoin="round" opacity="1" fill="none"></path><path d="M588.37 580.72L573.1 597.32" stroke="#8aaed0" stroke-width="3" stroke-linecap="round" stroke-linejoin="round" opacity="1" fill="none"></path><path d="M574.67 532.41H626.66" stroke="#b4d8fb" stroke-width="3" stroke-linecap="round" stroke-linejoin="round" opacity="1" fill="none"></path><path d="M586.96 523.25H614.36" stroke="#b4d8fb" stroke-width="3" stroke-linecap="round" stroke-linejoin="round" opacity="1" fill="none"></path><path d="M327.02 341.22H466.46C468.02 341.22 469.56 341.55 470.97 342.18 472.38 342.81 473.65 343.75 474.68 344.91 475.71 346.07 476.48 347.44 476.94 348.92 477.4 350.41 477.54 351.97 477.35 353.51L470.3 412.39C470 415.06 468.73 417.53 466.71 419.32 464.71 421.11 462.11 422.1 459.42 422.1H320.05C318.5 422.1 316.97 421.77 315.55 421.13 314.13 420.5 312.87 419.57 311.84 418.4 310.81 417.24 310.04 415.87 309.58 414.39 309.12 412.91 308.98 411.35 309.17 409.8L316.21 350.92C316.49 348.26 317.75 345.78 319.75 343.99 321.74 342.19 324.33 341.2 327.02 341.22V341.22Z" fill="#6286a6" opacity="1" stroke-width="3" stroke="none"></path><path d="M311.28 330.1H450.73C452.28 330.1 453.82 330.43 455.24 331.06 456.65 331.7 457.91 332.63 458.94 333.79 459.97 334.95 460.74 336.32 461.2 337.8 461.66 339.29 461.81 340.85 461.61 342.39L454.56 401.27C454.27 403.95 452.99 406.41 450.98 408.21 448.97 409.99 446.37 410.99 443.68 410.98H304.24C302.69 410.98 301.15 410.65 299.73 410.01 298.32 409.38 297.06 408.45 296.02 407.28 295 406.12 294.23 404.75 293.77 403.27 293.31 401.79 293.16 400.23 293.35 398.69L300.4 339.81C300.7 337.14 301.98 334.66 303.98 332.87 306 331.08 308.6 330.09 311.28 330.1V330.1Z" fill="#66b2dc" opacity="1" stroke-width="3" stroke="none"></path><path d="M327.02 341.22H466.46C468.02 341.22 469.56 341.55 470.97 342.18 472.38 342.81 473.65 343.75 474.68 344.91 475.71 346.07 476.48 347.44 476.94 348.92 477.4 350.41 477.54 351.97 477.35 353.51L470.3 412.39C470 415.06 468.73 417.53 466.71 419.32 464.71 421.11 462.11 422.1 459.42 422.1H320.05C318.5 422.1 316.97 421.77 315.55 421.13 314.13 420.5 312.87 419.57 311.84 418.4 310.81 417.24 310.04 415.87 309.58 414.39 309.12 412.91 308.98 411.35 309.17 409.8L316.21 350.92C316.49 348.26 317.75 345.78 319.75 343.99 321.74 342.19 324.33 341.2 327.02 341.22V341.22Z" fill="#6286a6" opacity="1" stroke-width="3" stroke="none"></path><path d="M311.28 330.1H450.73C452.28 330.1 453.82 330.43 455.24 331.06 456.65 331.7 457.91 332.63 458.94 333.79 459.97 334.95 460.74 336.32 461.2 337.8 461.66 339.29 461.81 340.85 461.61 342.39L454.56 401.27C454.27 403.95 452.99 406.41 450.98 408.21 448.97 409.99 446.37 410.99 443.68 410.98H304.24C302.69 410.98 301.15 410.65 299.73 410.01 298.32 409.38 297.06 408.45 296.02 407.28 295 406.12 294.23 404.75 293.77 403.27 293.31 401.79 293.16 400.23 293.35 398.69L300.4 339.81C300.7 337.14 301.98 334.66 303.98 332.87 306 331.08 308.6 330.09 311.28 330.1V330.1Z" fill="#3b607f" opacity="1" stroke-width="3" stroke="none"></path><path d="M331.4 349.44H315.98L310.58 396.02H326L331.4 349.44Z" fill="#b4d8fb" stroke-linejoin="round" opacity="1" stroke-width="3" stroke="none"></path><path d="M352.23 372.69L349.57 396.02H334.14L336.88 372.69H352.23Z" fill="#6286a6" stroke-linejoin="round" opacity="1" stroke-width="3" stroke="none"></path><path d="M378.54 349.44H363.11L357.71 396.02H373.06L378.54 349.44Z" fill="#b4d8fb" stroke-linejoin="round" opacity="1" stroke-width="3" stroke="none"></path><path d="M400.62 361.73L396.7 396.02H381.28L385.27 361.73H400.62Z" fill="#8aaed0" stroke-linejoin="round" opacity="1" stroke-width="3" stroke="none"></path><path d="M424.73 357.19L420.19 396.02H404.85L409.31 357.19H424.73Z" fill="#ffffff" stroke-linejoin="round" opacity="1" stroke-width="3" stroke="none"></path><path d="M444.54 389.21L443.76 396.02H428.41L429.2 389.21H444.54Z" fill="#6286a6" stroke-linejoin="round" opacity="1" stroke-width="3" stroke="none"></path><path d="M269.32 458.82H461.45C462.71 458.82 463.95 459.09 465.1 459.61 466.24 460.12 467.27 460.88 468.1 461.81 468.94 462.75 469.56 463.85 469.94 465.05 470.32 466.25 470.45 467.52 470.3 468.76L459.89 556.06C459.63 558.22 458.59 560.22 456.95 561.66 455.32 563.1 453.22 563.9 451.04 563.89H258.9C257.65 563.89 256.4 563.62 255.26 563.1 254.12 562.58 253.09 561.83 252.25 560.9 251.42 559.96 250.8 558.85 250.41 557.66 250.04 556.46 249.91 555.19 250.05 553.95L260.47 466.65C260.74 464.49 261.79 462.5 263.42 461.06 265.05 459.62 267.15 458.82 269.32 458.82V458.82Z" fill="#6286a6" opacity="1" stroke-width="3" stroke="none"></path><path d="M262.97 546.74L319.35 482.93C319.5 482.76 319.68 482.64 319.89 482.57 320.11 482.51 320.33 482.5 320.54 482.56 320.76 482.62 320.94 482.74 321.1 482.9 321.25 483.06 321.34 483.26 321.38 483.48L332.58 544.32C332.62 544.53 332.72 544.74 332.87 544.9 333.02 545.06 333.21 545.18 333.42 545.24 333.64 545.29 333.86 545.29 334.07 545.22 334.29 545.16 334.47 545.04 334.61 544.86L389.42 482.93C389.57 482.76 389.76 482.64 389.97 482.57 390.18 482.51 390.4 482.5 390.62 482.56 390.83 482.62 391.02 482.74 391.17 482.9 391.32 483.06 391.42 483.26 391.46 483.48L402.57 543.92C402.63 544.16 402.74 544.37 402.91 544.53 403.08 544.71 403.29 544.82 403.52 544.87 403.76 544.92 403.99 544.9 404.22 544.82 404.44 544.73 404.63 544.58 404.77 544.39L449.08 481.05" stroke="#3b607f" stroke-width="3" stroke-linecap="round" stroke-linejoin="round" opacity="1" fill="none"></path><path d="M320.68 486.53C322.71 486.53 324.36 484.89 324.36 482.85 324.36 480.82 322.71 479.17 320.68 479.17 318.65 479.17 317 480.82 317 482.85 317 484.89 318.65 486.53 320.68 486.53Z" fill="#b4d8fb" opacity="1" stroke-width="3" stroke="none"></path><path d="M390.44 486.53C392.47 486.53 394.12 484.89 394.12 482.85 394.12 480.82 392.47 479.17 390.44 479.17 388.41 479.17 386.76 480.82 386.76 482.85 386.76 484.89 388.41 486.53 390.44 486.53Z" fill="#b4d8fb" opacity="1" stroke-width="3" stroke="none"></path><path d="M333.6 548.78C335.63 548.78 337.28 547.13 337.28 545.1 337.28 543.06 335.63 541.42 333.6 541.42 331.57 541.42 329.92 543.06 329.92 545.1 329.92 547.13 331.57 548.78 333.6 548.78Z" fill="#b4d8fb" opacity="1" stroke-width="3" stroke="none"></path><path d="M403.98 548.78C406.02 548.78 407.66 547.13 407.66 545.1 407.66 543.06 406.02 541.42 403.98 541.42 401.96 541.42 400.3 543.06 400.3 545.1 400.3 547.13 401.96 548.78 403.98 548.78Z" fill="#b4d8fb" opacity="1" stroke-width="3" stroke="none"></path><path d="M608.18 325.09H741.13C742.35 325.1 743.55 325.35 744.67 325.84 745.79 326.33 746.79 327.04 747.62 327.95 748.45 328.84 749.09 329.89 749.5 331.05 749.9 332.2 750.07 333.43 749.97 334.64L747.39 365.64C747.21 367.87 746.2 369.94 744.55 371.45 742.92 372.95 740.77 373.79 738.54 373.79H605.6C604.37 373.78 603.17 373.53 602.06 373.04 600.94 372.54 599.93 371.83 599.1 370.93 598.27 370.04 597.63 368.98 597.23 367.83 596.83 366.68 596.66 365.46 596.75 364.24L599.33 333.23C599.54 331.02 600.56 328.96 602.2 327.46 603.83 325.96 605.96 325.11 608.18 325.09V325.09Z" fill="#6286a6" opacity="1" stroke-width="3" stroke="none"></path><path d="M725.15 341.14L706.52 357.66 696.81 341.14 678.25 357.66 668.55 341.14 649.91 357.66 640.2 341.14 621.57 357.66" stroke="#b4d8fb" stroke-width="3" stroke-linecap="round" stroke-linejoin="round" opacity="1" fill="none"></path></g></svg>