<svg xmlns="http://www.w3.org/2000/svg" height="1200" width="1600" version="1.1" xmlns:xlink="http://www.w3.org/1999/xlink" xmlns:svgjs="http://svgjs.com/svgjs"><rect fill="#ffffff" width="1600" height="1200"></rect><g><path d="M846.82 1016.71C1066.51 1016.71 1244.61 838.59 1244.61 618.86 1244.61 399.14 1066.51 221.01 846.82 221.01 627.13 221.01 449.05 399.14 449.05 618.86 449.05 838.59 627.13 1016.71 846.82 1016.71Z" fill="#ffffff" opacity="0.2" stroke-width="2" stroke="#344f5b"></path><path d="M1226.28 771.31C1245.35 771.31 1260.82 755.84 1260.82 736.76 1260.82 717.69 1245.35 702.22 1226.28 702.22 1207.2 702.22 1191.75 717.69 1191.75 736.76 1191.75 755.84 1207.2 771.31 1226.28 771.31Z" fill="#ffffff" opacity="0.6" stroke-width="2" stroke="#344f5b"></path></g><g><path d="M821.31 143.6L1126.79 143.6 1126.79 449.08 821.31 449.08V143.6Z" stroke="#344f5b" stroke-width="2" stroke-linecap="round" stroke-linejoin="round" opacity="1" fill="none"></path><path d="M1126.79 449.08L1203.45 494.49" stroke="#344f5b" stroke-width="2" stroke-linecap="round" stroke-linejoin="round" opacity="1" fill="none"></path><path d="M897.97 189.01L1203.45 189.01V494.49L897.97 494.49 897.97 189.01Z" stroke="#344f5b" stroke-width="2" stroke-linecap="round" stroke-linejoin="round" opacity="1" fill="none"></path><path d="M898.03 494.49L821.31 449.08" stroke="#344f5b" stroke-width="2" stroke-linecap="round" stroke-linejoin="round" opacity="1" fill="none"></path><path d="M898.03 189.01L821.31 143.6" stroke="#344f5b" stroke-width="2" stroke-linecap="round" stroke-linejoin="round" opacity="1" fill="none"></path><path d="M1203.45 189.01L1126.79 143.6" stroke="#344f5b" stroke-width="2" stroke-linecap="round" stroke-linejoin="round" opacity="1" fill="none"></path></g><g><path d="M712.27 759.24C712.48 760.6 712.39 761.98 712.01 763.29 711.64 764.6 710.98 765.81 710.1 766.84 709.21 767.87 708.12 768.7 706.88 769.27 705.64 769.84 704.29 770.13 702.92 770.13H421.99C418.96 770.13 416.01 769.04 413.7 767.04 411.4 765.06 409.88 762.31 409.43 759.3L344.89 330.52C344.68 329.16 344.78 327.78 345.14 326.47 345.52 325.15 346.17 323.94 347.06 322.91 347.95 321.88 349.05 321.05 350.29 320.49 351.53 319.91 352.87 319.62 354.24 319.62H635.17C638.21 319.62 641.14 320.72 643.45 322.71 645.77 324.7 647.28 327.45 647.73 330.45L712.27 759.24Z" fill="#ffffff" opacity="0.4" stroke-width="2" stroke="#344f5b"></path><path d="M354.24 319.62C352.87 319.62 351.53 319.91 350.29 320.49 349.05 321.05 347.95 321.88 347.06 322.91 346.17 323.94 345.52 325.15 345.14 326.47 344.78 327.78 344.68 329.16 344.89 330.52L409.43 759.3C409.88 762.31 411.4 765.06 413.7 767.04 416.01 769.04 418.96 770.13 421.99 770.13H702.92C704.29 770.13 705.64 769.84 706.88 769.27 708.12 768.7 709.21 767.87 710.1 766.84 710.98 765.81 711.64 764.6 712.01 763.29 712.39 761.98 712.48 760.6 712.27 759.24L354.24 319.62Z" fill="#808080" opacity="0.3" stroke-width="2" stroke="#ffffff00"></path><path d="M747.29 775.67H373.47C373.03 775.66 372.61 775.49 372.29 775.18 371.98 774.87 371.8 774.45 371.8 774.01L371.72 766.26C371.71 765.82 371.88 765.4 372.19 765.08 372.5 764.78 372.92 764.6 373.36 764.6H747.18C747.62 764.6 748.04 764.78 748.36 765.08 748.67 765.4 748.85 765.82 748.86 766.26L748.93 774.01C748.94 774.45 748.77 774.87 748.46 775.18 748.15 775.49 747.73 775.66 747.29 775.67V775.67Z" fill="#ffffff" opacity="1" stroke-width="2" stroke="#344f5b"></path></g><g><path d="M570.4 455.38L668.91 415.05 709.88 440.52 843.26 385.92" stroke="#344f5b" stroke-width="2" stroke-linecap="round" stroke-linejoin="round" opacity="1" fill="none"></path><path d="M829.96 380.33L843.27 385.9 837.69 399.23" stroke="#344f5b" stroke-width="2" stroke-linecap="round" stroke-linejoin="round" opacity="1" fill="none"></path></g><g><path d="M651.26 590.22H505.19L527.27 736.28H673.33L651.26 590.22Z" stroke="#344f5b" stroke-width="2" stroke-linecap="round" stroke-linejoin="round" opacity="1" fill="none"></path><path d="M521.74 699.71H667.8" stroke="#344f5b" stroke-width="2" stroke-linecap="round" stroke-linejoin="round" opacity="1" fill="none"></path><path d="M516.23 663.25H662.29" stroke="#344f5b" stroke-width="2" stroke-linecap="round" stroke-linejoin="round" opacity="1" fill="none"></path><path d="M510.7 626.68H656.77" stroke="#344f5b" stroke-width="2" stroke-linecap="round" stroke-linejoin="round" opacity="1" fill="none"></path><path d="M614.68 590.22L636.76 736.28" stroke="#344f5b" stroke-width="2" stroke-linecap="round" stroke-linejoin="round" opacity="1" fill="none"></path><path d="M578.23 590.22L600.3 736.28" stroke="#344f5b" stroke-width="2" stroke-linecap="round" stroke-linejoin="round" opacity="1" fill="none"></path><path d="M541.77 590.22L563.84 736.28" stroke="#344f5b" stroke-width="2" stroke-linecap="round" stroke-linejoin="round" opacity="1" fill="none"></path><path d="M603.45 684.58L603.6 672.19 603.28 666.11C603.28 666.11 603.26 665.99 603.38 665.99H610.53C610.53 665.99 610.64 665.99 610.63 665.87L613.99 651.1C613.72 650.86 611.04 648.12 608.79 645.86 608.79 645.86 608.79 645.86 608.78 645.74 608.76 645.62 608.78 645.74 608.76 645.62L632.4 631.8C632.4 631.8 632.4 631.8 632.38 631.68L632.37 631.56 622.69 626.68C622.69 626.68 622.56 626.56 622.67 626.56L627.11 611.78 627.1 611.67 613.94 601.9H613.82L602.65 613.09 577.12 616.79C577.12 616.79 577.12 616.79 577 616.79L571.99 630.13C571.99 630.13 571.99 630.13 571.87 630.13L556.97 631.68 540.16 648.95 540.18 649.07 547.63 662.89 551.71 667.06C551.71 667.06 551.71 667.06 551.73 667.18L549.8 680.41C549.8 680.41 549.82 680.53 549.7 680.53H541C541 680.53 540.88 680.53 540.9 680.65L540.74 688.27 540.76 688.39 559.1 695.42 577.95 690.89 603.45 684.58Z" fill="#ffffff" opacity="0.43" stroke-width="2" stroke="#344f5b"></path><path d="M616.54 723.89C616.66 723.89 616.66 723.89 616.54 723.89 616.66 723.89 616.66 723.89 616.54 723.89L608.7 702.8 610.31 693.75C610.31 693.75 610.31 693.75 610.41 693.63H610.53L616.72 698.28H616.83L623.57 693.99 623.56 693.87 613.98 674.69C613.98 674.69 613.98 674.69 613.85 674.57L603.72 672.19C603.72 672.19 603.72 672.19 603.6 672.19 603.6 672.19 603.6 672.19 603.62 672.31L603.55 684.46C603.55 684.46 603.57 684.58 603.45 684.58L578.05 690.77 559.47 695.54C559.47 695.54 559.47 695.54 559.35 695.54L559.37 695.66 580.55 721.51C580.55 721.51 580.55 721.51 580.67 721.51L616.54 723.89Z" fill="#ffffff" opacity="0.43" stroke-width="2" stroke="#344f5b"></path><path d="M598.59 669.8L584.84 673.38 578.93 683.15 562.33 684.46 559.37 689.34" stroke="#344f5b" stroke-width="2" stroke-linecap="round" stroke-linejoin="round" opacity="1" fill="none"></path><path d="M582.18 677.91L572.56 677.31 565.21 671.23 556.74 671.95" stroke="#344f5b" stroke-width="2" stroke-linecap="round" stroke-linejoin="round" opacity="1" fill="none"></path><path d="M602.46 649.67L582.16 643.83 574.45 635.37" stroke="#344f5b" stroke-width="2" stroke-linecap="round" stroke-linejoin="round" opacity="1" fill="none"></path><path d="M594.24 647.29L587.45 654.44H573.63L561.18 650.86 546.77 655.63" stroke="#344f5b" stroke-width="2" stroke-linecap="round" stroke-linejoin="round" opacity="1" fill="none"></path><path d="M562.48 618.46H570.22" stroke="#344f5b" stroke-width="2" stroke-linecap="round" stroke-linejoin="round" opacity="1" fill="none"></path><path d="M589.69 610.12H591.48" stroke="#344f5b" stroke-width="2" stroke-linecap="round" stroke-linejoin="round" opacity="1" fill="none"></path><path d="M605.47 645.14H616.19" stroke="#344f5b" stroke-width="2" stroke-linecap="round" stroke-linejoin="round" opacity="1" fill="none"></path><path d="M628.99 640.73H637.92" stroke="#344f5b" stroke-width="2" stroke-linecap="round" stroke-linejoin="round" opacity="1" fill="none"></path><path d="M629.32 617.74H635.28" stroke="#344f5b" stroke-width="2" stroke-linecap="round" stroke-linejoin="round" opacity="1" fill="none"></path><path d="M531.15 693.39H547.12" stroke="#344f5b" stroke-width="2" stroke-linecap="round" stroke-linejoin="round" opacity="1" fill="none"></path><path d="M530.04 686.01H537.18" stroke="#344f5b" stroke-width="2" stroke-linecap="round" stroke-linejoin="round" opacity="1" fill="none"></path><path d="M616.72 708.52H626.6" stroke="#344f5b" stroke-width="2" stroke-linecap="round" stroke-linejoin="round" opacity="1" fill="none"></path><path d="M632.56 708.52H639.23" stroke="#344f5b" stroke-width="2" stroke-linecap="round" stroke-linejoin="round" opacity="1" fill="none"></path><path d="M585.29 711.86H580.53" stroke="#344f5b" stroke-width="2" stroke-linecap="round" stroke-linejoin="round" opacity="1" fill="none"></path><path d="M575.14 719.6H566.09" stroke="#344f5b" stroke-width="2" stroke-linecap="round" stroke-linejoin="round" opacity="1" fill="none"></path><path d="M492.77 508.02C492.77 508.02 492.75 507.9 492.77 508.02L614.03 507.9C614.03 507.9 614.15 507.9 614.17 508.02L615.74 518.38C615.74 518.38 615.76 518.5 615.64 518.5H494.47C494.47 518.5 494.35 518.5 494.34 518.38L492.77 508.02Z" fill="#ffffff" opacity="1" stroke-width="2" stroke="#344f5b"></path><path d="M496.01 529.46L559.25 529.34C559.25 529.34 559.37 529.34 559.39 529.46L560.96 539.83C560.96 539.83 560.98 539.94 560.86 539.94H497.71C497.71 539.94 497.6 539.94 497.58 539.83L496.01 529.46Z" fill="#ffffff" opacity="1" stroke-width="2" stroke="#344f5b"></path><path d="M568.92 529.46L589.63 529.34C589.63 529.34 589.75 529.34 589.77 529.46L591.34 539.83C591.34 539.83 591.36 539.94 591.24 539.94H570.63C570.63 539.94 570.51 539.94 570.49 539.83L568.92 529.46Z" fill="#ffffff" opacity="1" stroke-width="2" stroke="#344f5b"></path><path d="M499.27 551.02C499.25 550.91 499.25 550.91 499.27 551.02L605.16 550.91C605.16 550.91 605.28 550.91 605.3 551.02L606.87 561.39C606.87 561.39 606.89 561.51 606.77 561.51H500.97C500.97 561.51 500.85 561.51 500.84 561.39L499.27 551.02Z" fill="#ffffff" opacity="1" stroke-width="2" stroke="#344f5b"></path><path d="M502.51 572.47C502.51 572.47 502.49 572.35 502.51 572.47L539.66 572.35C539.66 572.35 539.78 572.35 539.8 572.47L541.37 582.83C541.37 582.83 541.39 582.95 541.27 582.95H504.21C504.21 582.95 504.1 582.95 504.08 582.83L502.51 572.47Z" fill="#ffffff" opacity="1" stroke-width="2" stroke="#344f5b"></path></g><g><path d="M542.47 431.84C542.83 431.84 543.13 431.56 543.31 431.07 543.49 430.58 543.53 429.91 543.42 429.22 543.32 428.52 543.07 427.86 542.75 427.37 542.42 426.87 542.03 426.6 541.68 426.6H480.32C479.96 426.6 479.66 426.87 479.48 427.37 479.3 427.86 479.26 428.52 479.36 429.22 479.47 429.91 479.71 430.58 480.04 431.07 480.37 431.56 480.75 431.84 481.11 431.84L542.47 431.84Z" fill="#ffffff" opacity="1" stroke-width="2" stroke="#344f5b"></path><path d="M482.98 444.24H544.34C544.7 444.24 545 443.96 545.18 443.47 545.36 442.98 545.4 442.31 545.3 441.62 545.19 440.92 544.95 440.26 544.62 439.76 544.29 439.27 543.91 439 543.55 439H482.19C481.83 439 481.53 439.27 481.35 439.76 481.17 440.26 481.13 440.92 481.24 441.62 481.34 442.31 481.58 442.98 481.91 443.47 482.24 443.96 482.62 444.24 482.98 444.24Z" fill="#ffffff" opacity="1" stroke-width="2" stroke="#344f5b"></path><path d="M515.53 456.63C515.89 456.63 516.19 456.35 516.37 455.86 516.55 455.37 516.59 454.7 516.49 454.01 516.38 453.32 516.14 452.65 515.81 452.16 515.49 451.67 515.1 451.39 514.74 451.39H484.06C483.71 451.39 483.4 451.67 483.22 452.16 483.05 452.65 483.01 453.32 483.11 454.01 483.21 454.7 483.46 455.37 483.78 455.86 484.11 456.35 484.5 456.63 484.86 456.63H515.53Z" fill="#ffffff" opacity="1" stroke-width="2" stroke="#344f5b"></path></g><g><path d="M518.65 390.1C517.84 390.1 517.05 389.41 516.93 388.6L513.67 367.05C513.55 366.24 514.13 365.55 514.94 365.55 515.75 365.55 516.54 366.24 516.67 367.05L519.92 388.6C520.16 389.41 519.57 390.1 518.65 390.1Z" fill="#ffffff" opacity="1" stroke-width="2" stroke="#344f5b"></path><path d="M504.82 390.1C504.02 390.1 503.22 389.41 503.1 388.6L499.84 367.05C499.72 366.24 500.31 365.55 501.11 365.55 501.92 365.55 502.71 366.24 502.84 367.05L506.09 388.6C506.22 389.41 505.74 390.1 504.82 390.1Z" fill="#ffffff" opacity="1" stroke-width="2" stroke="#344f5b"></path><path d="M490.99 390.1C490.19 390.1 489.39 389.41 489.27 388.6L486.01 367.05C485.89 366.24 486.48 365.55 487.28 365.55 488.09 365.55 488.89 366.24 489.01 367.05L492.26 388.6C492.39 389.41 491.8 390.1 490.99 390.1Z" fill="#ffffff" opacity="1" stroke-width="2" stroke="#344f5b"></path><path d="M483.4 385.61C482.59 385.61 481.8 384.91 481.67 384.11L480.05 373.39C479.93 372.58 480.52 371.89 481.33 371.89 482.13 371.89 482.93 372.58 483.05 373.39L484.67 384.11C484.79 384.91 484.21 385.61 483.4 385.61Z" fill="#ffffff" opacity="1" stroke-width="2" stroke="#344f5b"></path><path d="M496.74 382.38C495.93 382.38 495.14 381.69 495.02 380.88L494.34 376.39C494.21 375.58 494.8 374.89 495.61 374.89 496.41 374.89 497.21 375.58 497.33 376.39L498.01 380.88C498.13 381.69 497.55 382.38 496.74 382.38Z" fill="#ffffff" opacity="1" stroke-width="2" stroke="#344f5b"></path><path d="M476 382.38C475.19 382.38 474.39 381.69 474.27 380.88L473.59 376.39C473.47 375.58 474.06 374.89 474.86 374.89 475.67 374.89 476.47 375.58 476.59 376.39L477.27 380.88C477.39 381.69 476.8 382.38 476 382.38Z" fill="#ffffff" opacity="1" stroke-width="2" stroke="#344f5b"></path><path d="M525 385.61C524.2 385.61 523.4 384.91 523.28 384.11L521.66 373.39C521.54 372.58 522.12 371.89 522.93 371.89 523.74 371.89 524.53 372.58 524.65 373.39L526.27 384.11C526.4 384.91 525.81 385.61 525 385.61Z" fill="#ffffff" opacity="1" stroke-width="2" stroke="#344f5b"></path><path d="M513.36 400.82C512.55 400.82 511.75 400.13 511.63 399.32L505.14 356.33C505.01 355.53 505.6 354.84 506.41 354.84 507.21 354.84 508.01 355.53 508.13 356.33L514.63 399.32C514.75 400.13 514.16 400.82 513.36 400.82Z" fill="#ffffff" opacity="1" stroke-width="2" stroke="#344f5b"></path></g><g><path d="M410.89 414.03C408.02 413.98 405.26 412.91 403.1 411.02 400.94 409.13 399.52 406.54 399.09 403.7 398.87 402.32 398.95 400.91 399.33 399.57 399.7 398.22 400.38 396.98 401.28 395.92 402.19 394.88 403.31 394.06 404.57 393.51 405.82 392.95 407.19 392.68 408.56 392.7 411.44 392.76 414.19 393.82 416.35 395.72 418.52 397.6 419.93 400.2 420.36 403.03 420.58 404.41 420.5 405.82 420.13 407.16 419.75 408.51 419.08 409.75 418.17 410.82 417.27 411.85 416.14 412.67 414.89 413.22 413.63 413.78 412.26 414.05 410.89 414.03V414.03ZM408.56 397.5C407.88 397.48 407.19 397.61 406.56 397.88 405.93 398.15 405.36 398.55 404.9 399.06 404.44 399.61 404.11 400.25 403.93 400.93 403.75 401.62 403.71 402.33 403.83 403.03 404.13 404.72 404.98 406.25 406.27 407.38 407.55 408.51 409.18 409.16 410.89 409.23 411.57 409.26 412.26 409.12 412.89 408.86 413.53 408.59 414.1 408.18 414.56 407.67 415.01 407.12 415.34 406.49 415.52 405.8 415.7 405.11 415.74 404.4 415.62 403.7 415.33 402.01 414.47 400.48 413.19 399.35 411.9 398.22 410.27 397.57 408.56 397.5V397.5Z" fill="#ffffff" opacity="0.5" stroke-width="2" stroke="#344f5b"></path><path d="M426.02 479.32C428.93 476.21 428.38 470.98 424.8 467.65 421.22 464.31 415.97 464.11 413.07 467.23 410.16 470.34 410.71 475.57 414.29 478.91 417.87 482.25 423.12 482.43 426.02 479.32Z" fill="#ffffff" opacity="0.6" stroke-width="2" stroke="#344f5b"></path><path d="M430.54 553.84C427.66 553.79 424.91 552.72 422.75 550.83 420.58 548.94 419.17 546.35 418.74 543.51 418.52 542.13 418.6 540.72 418.97 539.38 419.35 538.03 420.02 536.79 420.93 535.73 421.83 534.69 422.96 533.87 424.21 533.32 425.47 532.76 426.84 532.49 428.21 532.51 431.08 532.57 433.84 533.63 436 535.52 438.16 537.41 439.58 540.01 440.01 542.84 440.23 544.22 440.15 545.63 439.77 546.97 439.4 548.32 438.73 549.56 437.82 550.62 436.91 551.66 435.79 552.48 434.53 553.03 433.27 553.59 431.91 553.86 430.54 553.84ZM428.21 537.31C427.53 537.28 426.84 537.42 426.2 537.69 425.57 537.95 425 538.36 424.54 538.87 424.08 539.42 423.76 540.05 423.57 540.74 423.39 541.43 423.36 542.14 423.48 542.84 423.76 544.53 424.63 546.06 425.9 547.19 427.19 548.32 428.82 548.97 430.53 549.04 431.22 549.07 431.9 548.93 432.54 548.67 433.17 548.4 433.74 547.99 434.2 547.48 434.66 546.93 434.99 546.29 435.17 545.61 435.35 544.92 435.39 544.21 435.27 543.51 434.97 541.83 434.12 540.29 432.83 539.16 431.55 538.03 429.92 537.38 428.21 537.31V537.31Z" fill="#ffffff" opacity="0.5" stroke-width="2" stroke="#344f5b"></path><path d="M440.36 623.74C437.49 623.69 434.73 622.63 432.57 620.73 430.41 618.85 428.99 616.25 428.56 613.41 428.33 612.03 428.42 610.63 428.8 609.28 429.17 607.94 429.84 606.7 430.75 605.63 431.66 604.6 432.77 603.78 434.04 603.22 435.29 602.67 436.66 602.39 438.03 602.41 440.91 602.47 443.66 603.53 445.82 605.42 447.98 607.31 449.4 609.91 449.83 612.74 450.05 614.13 449.97 615.53 449.6 616.87 449.21 618.22 448.55 619.46 447.64 620.52 446.74 621.56 445.61 622.38 444.36 622.94 443.09 623.49 441.73 623.77 440.36 623.74V623.74ZM438.03 607.21C437.34 607.19 436.66 607.32 436.03 607.59 435.39 607.86 434.83 608.27 434.36 608.78 433.91 609.32 433.58 609.96 433.4 610.64 433.21 611.33 433.18 612.05 433.3 612.74 433.6 614.43 434.45 615.96 435.74 617.09 437.02 618.22 438.65 618.88 440.36 618.95 441.04 618.97 441.73 618.84 442.36 618.57 443 618.3 443.57 617.89 444.03 617.38 444.48 616.83 444.81 616.19 444.99 615.52 445.17 614.83 445.2 614.11 445.08 613.41 444.8 611.73 443.94 610.19 442.66 609.07 441.37 607.93 439.74 607.28 438.03 607.21V607.21Z" fill="#ffffff" opacity="0.5" stroke-width="2" stroke="#344f5b"></path><path d="M450.18 693.65C447.31 693.59 444.55 692.53 442.39 690.64 440.24 688.75 438.81 686.15 438.38 683.31 438.16 681.94 438.24 680.53 438.62 679.18 439 677.84 439.66 676.6 440.57 675.53 441.48 674.5 442.6 673.68 443.86 673.13 445.12 672.57 446.48 672.3 447.86 672.32 450.72 672.37 453.48 673.44 455.64 675.33 457.8 677.22 459.22 679.82 459.65 682.65 459.87 684.03 459.79 685.44 459.41 686.78 459.04 688.12 458.37 689.37 457.47 690.43 456.55 691.46 455.44 692.29 454.17 692.84 452.92 693.4 451.55 693.67 450.18 693.65ZM447.86 677.11C447.17 677.09 446.48 677.23 445.85 677.5 445.21 677.76 444.64 678.17 444.19 678.68 443.73 679.22 443.41 679.86 443.22 680.55 443.04 681.24 443.01 681.95 443.13 682.65 443.41 684.34 444.28 685.87 445.56 687 446.84 688.12 448.47 688.78 450.18 688.85 450.87 688.87 451.55 688.74 452.19 688.47 452.82 688.2 453.38 687.8 453.85 687.29 454.3 686.74 454.63 686.1 454.81 685.42 455 684.73 455.03 684.02 454.91 683.31 454.62 681.63 453.76 680.09 452.48 678.97 451.19 677.84 449.57 677.19 447.86 677.11V677.11Z" fill="#ffffff" opacity="0.5" stroke-width="2" stroke="#344f5b"></path></g><g><path d="M1011.96 1000.85V1021.88L1005.52 1032.73C1005.52 1032.73 1026.6 1054.99 1050.12 1036.64L1048.01 1010.03 1011.96 1000.85Z" fill="#ffffff" opacity="1" stroke-width="2" stroke="#344f5b"></path><path d="M1006.49 1025.78L987.84 1042.49C987.84 1042.49 981.97 1044.85 976.01 1047.15 972.27 1048.58 968.5 1050.73 966.1 1051.52 964.38 1052.01 962.84 1053 961.68 1054.36 960.52 1055.72 959.78 1057.4 959.58 1059.18L958.51 1059.54C958.03 1059.69 957.62 1060 957.33 1060.41 957.03 1060.82 956.88 1061.3 956.88 1061.81V1064.16C956.88 1064.6 957.05 1065.03 957.36 1065.34 957.68 1065.66 958.11 1065.83 958.55 1065.83H1054.87V1055.79L1052.87 1054.47 1053.25 1045.27 1052.13 1033.2C1052.09 1032.8 1051.96 1032.41 1051.73 1032.09 1051.51 1031.76 1051.21 1031.49 1050.85 1031.3 1050.5 1031.12 1050.11 1031.03 1049.71 1031.04 1049.31 1031.05 1048.92 1031.15 1048.58 1031.35L1036.65 1038.23C1035.43 1038.93 1034.06 1039.31 1032.65 1039.34 1031.24 1039.36 1029.85 1039.02 1028.61 1038.36L1016.69 1032.01 1016.35 1028.19C1016.31 1027.63 1016.1 1027.1 1015.75 1026.67 1015.4 1026.24 1014.93 1025.91 1014.39 1025.75 1012.71 1025.26 1010.97 1024.95 1009.22 1024.85 1008.72 1024.81 1008.23 1024.88 1007.75 1025.04 1007.28 1025.2 1006.85 1025.45 1006.49 1025.78V1025.78Z" fill="#ffffff" opacity="1" stroke-width="2" stroke="#344f5b"></path><path d="M976.01 1047.15C973.27 1048.18 967.89 1050.19 966.1 1050.77 959.89 1052.82 959.58 1059.18 959.58 1059.18L980.74 1058.49 976.01 1047.15Z" fill="#ffffff" opacity="1" stroke-width="2" stroke="#344f5b"></path><path d="M989.55 1057.91L986.95 1053.1C986.62 1052.47 986.41 1051.78 986.35 1051.07 986.28 1050.36 986.37 1049.64 986.6 1048.96 986.82 1048.29 987.18 1047.67 987.65 1047.13 988.12 1046.6 988.71 1046.17 989.35 1045.86L995.92 1042.79 1009.23 1031.32C1010.05 1030.61 1011.09 1030.19 1012.18 1030.13 1013.27 1030.08 1014.34 1030.39 1015.23 1031L1016.69 1032.01" stroke="#344f5b" stroke-width="2" stroke-linecap="round" stroke-linejoin="round" opacity="1" fill="none"></path><path d="M1052.87 1054.47L984.32 1058.32 980.74 1058.49" stroke="#344f5b" stroke-width="2" stroke-linecap="round" stroke-linejoin="round" opacity="1" fill="none"></path><path d="M1104.7 1012.29V1026.51L1107.07 1040.52C1107.07 1040.52 1085.99 1049.57 1061.59 1031.57L1067.73 1018.32 1067.08 1006 1104.7 1012.29Z" fill="#ffffff" opacity="1" stroke-width="2" stroke="#344f5b"></path><path d="M984.06 540.75C984.06 540.75 981.67 573.63 980.79 593.28 980.79 593.28 962.81 679.96 960.4 764.13L956.6 796.04C955.82 802.49 956.54 809.01 958.68 815.13L962.97 827.4C964.65 832.19 966.04 837.07 967.15 842.02L995.4 967.98C996.96 974.91 997.74 981.99 997.74 989.1V1018.5C997.74 1019.16 997.99 1019.8 998.43 1020.28 998.87 1020.77 999.47 1021.08 1000.13 1021.15L1054.6 1026.94C1055.02 1026.98 1055.44 1026.94 1055.84 1026.81 1056.24 1026.68 1056.61 1026.47 1056.92 1026.18 1057.23 1025.9 1057.49 1025.56 1057.65 1025.18 1057.82 1024.79 1057.91 1024.37 1057.91 1023.96V1018.38L1113.46 1028.78C1113.94 1028.87 1114.43 1028.85 1114.91 1028.73 1115.39 1028.61 1115.83 1028.39 1116.21 1028.08 1116.59 1027.77 1116.89 1027.38 1117.11 1026.94 1117.32 1026.5 1117.44 1026.02 1117.44 1025.53 1117.84 1004.57 1119.43 906.91 1115.56 885.01 1111.23 860.45 1093.17 805.18 1091.55 793.98 1090.21 784.72 1094.99 687.76 1096.68 654.56 1097.04 647.46 1098.14 640.41 1099.97 633.54 1104.11 617.89 1111.51 587.8 1111.23 573.64 1110.66 545.34 1094.86 518.51 1094.86 518.51 1094.86 518.51 1041.49 512.18 984.06 540.75Z" fill="#ffffff" opacity="1" stroke-width="2" stroke="#344f5b"></path><path d="M1066.88 585.4C1066.88 585.4 1068.72 573.52 1069.77 560.46 1069.95 558.21 1069.87 555.93 1069.53 553.7L1065.19 525.27" stroke="#344f5b" stroke-width="2" stroke-linecap="round" stroke-linejoin="round" opacity="1" fill="none"></path><path d="M1085.83 647.23L1095.17 685.18C1095.77 672.87 1096.3 662.08 1096.68 654.56 1097.05 647.46 1098.15 640.41 1099.97 633.54 1103.74 619.31 1110.19 593.16 1111.12 577.88L1087.82 627.35C1084.89 633.55 1084.19 640.57 1085.83 647.23V647.23Z" fill="#808080" opacity="0.3" stroke-width="2" stroke="#ffffff00"></path><path d="M1037.2 545.95C1037.2 545.95 1056.62 576.23 1072.75 591.4" stroke="#344f5b" stroke-width="2" stroke-linecap="round" stroke-linejoin="round" opacity="1" fill="none"></path><path d="M1053.07 963.41L1039.9 862.64C1039.06 856.18 1037.11 849.9 1034.12 844.1L1028.88 833.88C1026.02 828.3 1024.38 822.18 1024.07 815.92L1022.37 780.99 1010.82 719.94C1010.82 719.94 1009.82 712.09 1008.43 700.35L997.73 793.78C996.87 801.35 997.77 809.01 1000.37 816.17L1011.13 845.82C1012.72 850.21 1013.94 854.73 1014.78 859.34L1028.48 934.84C1030.25 944.61 1031.14 954.51 1031.13 964.44L1031.07 1024.44 1054.61 1026.94C1055.03 1026.98 1055.44 1026.94 1055.85 1026.81 1056.25 1026.68 1056.61 1026.47 1056.93 1026.18 1057.24 1025.91 1057.49 1025.56 1057.66 1025.18 1057.83 1024.8 1057.92 1024.38 1057.92 1023.96V1018.38L1054.04 1017.71 1053.07 963.41Z" fill="#808080" opacity="0.3" stroke-width="2" stroke="#ffffff00"></path><path d="M993.06 593.28C996.61 602.45 999.97 612.29 999.97 612.29 1001.42 645.53 1010.81 719.94 1010.81 719.94L1022.37 780.99 1024.07 815.92C1024.38 822.18 1026.02 828.3 1028.88 833.88L1034.12 844.1C1037.11 849.9 1039.06 856.18 1039.9 862.64L1053.07 963.41 1054.01 1016.1C1054.01 1016.56 1054.18 1016.99 1054.48 1017.34 1054.77 1017.68 1055.18 1017.91 1055.62 1017.99L1056.39 1018.12 1057.92 1018.38" stroke="#344f5b" stroke-width="2" stroke-linecap="round" stroke-linejoin="round" opacity="1" fill="none"></path><path d="M1061.25 1026.35L1051.2 1039.4C1051.2 1039.4 1037.15 1047.33 1029.47 1051.56 1026.01 1053.47 1025.12 1059.91 1025.12 1059.91L1024.16 1060.21C1023.78 1060.32 1023.45 1060.56 1023.22 1060.87 1022.98 1061.18 1022.86 1061.57 1022.86 1061.96V1064.46C1022.86 1064.82 1023.01 1065.17 1023.27 1065.43 1023.53 1065.69 1023.88 1065.83 1024.24 1065.83H1112.52C1112.53 1065.83 1112.54 1065.83 1112.55 1065.83 1112.56 1065.83 1112.57 1065.82 1112.58 1065.81 1112.59 1065.8 1112.59 1065.8 1112.59 1065.78 1112.59 1065.77 1112.59 1065.76 1112.59 1065.75L1111.66 1057.44C1111.57 1056.68 1111.25 1055.95 1110.75 1055.36L1110.27 1054.8 1110.29 1050.21C1110.31 1047.64 1110.04 1045.09 1109.53 1042.58L1108.04 1035.39C1107.99 1035.17 1107.9 1034.96 1107.76 1034.78 1107.62 1034.6 1107.44 1034.45 1107.23 1034.35 1107.03 1034.25 1106.81 1034.2 1106.58 1034.2 1106.36 1034.2 1106.13 1034.25 1105.92 1034.35L1096.61 1038.9C1095.32 1039.54 1093.9 1039.84 1092.47 1039.8 1091.03 1039.75 1089.63 1039.36 1088.37 1038.65L1075.88 1031.57 1075.83 1028.8C1075.82 1028.06 1075.56 1027.35 1075.1 1026.77 1074.64 1026.2 1074 1025.79 1073.28 1025.61 1070.3 1024.85 1067.2 1024.57 1064.13 1024.78 1063.57 1024.83 1063.02 1024.99 1062.52 1025.26 1062.02 1025.53 1061.59 1025.9 1061.25 1026.35V1026.35Z" fill="#ffffff" opacity="1" stroke-width="2" stroke="#344f5b"></path><path d="M1061.59 1058.64C1060.3 1056.24 1057.42 1053.49 1054.86 1051.34 1054.37 1050.94 1053.99 1050.42 1053.76 1049.82 1053.52 1049.23 1053.44 1048.6 1053.51 1047.97 1053.6 1047.34 1053.83 1046.74 1054.19 1046.22 1054.56 1045.7 1055.05 1045.28 1055.62 1045.01 1057.14 1044.27 1058.48 1043.24 1059.6 1041.97L1068.84 1031.47C1069.36 1030.89 1070.05 1030.47 1070.82 1030.28 1071.59 1030.1 1072.4 1030.16 1073.13 1030.46 1073.28 1030.52 1075.97 1031.61 1075.89 1031.57" stroke="#344f5b" stroke-width="2" stroke-linecap="round" stroke-linejoin="round" opacity="1" fill="none"></path><path d="M1036.44 1047.69C1033.92 1049.1 1031.48 1050.45 1029.47 1051.56 1027.87 1052.44 1026.82 1054.29 1026.16 1056.02 1025.68 1057.28 1025.33 1058.58 1025.12 1059.91L1053.74 1059.49C1052.6 1053.16 1041.3 1048.93 1036.44 1047.69Z" fill="#ffffff" opacity="1" stroke-width="2" stroke="#344f5b"></path><path d="M1039.07 857.9L1062.84 924.14" stroke="#344f5b" stroke-width="2" stroke-linecap="round" stroke-linejoin="round" opacity="1" fill="none"></path><path d="M1013.36 733.44L993.99 773.83" stroke="#344f5b" stroke-width="2" stroke-linecap="round" stroke-linejoin="round" opacity="1" fill="none"></path><path d="M1112.6 1020.86L1097.95 1013.26C1094.07 1011.25 1090.84 1008.16 1088.66 1004.36L1087.96 1003.15" stroke="#344f5b" stroke-width="2" stroke-linecap="round" stroke-linejoin="round" opacity="1" fill="none"></path><path d="M1019.15 992.27L1053.73 1012.01" stroke="#344f5b" stroke-width="2" stroke-linecap="round" stroke-linejoin="round" opacity="1" fill="none"></path><path d="M1053.73 1059.49L1107.57 1055.01 1110.27 1054.8" stroke="#344f5b" stroke-width="2" stroke-linecap="round" stroke-linejoin="round" opacity="1" fill="none"></path><path d="M990.05 1049.38C989.74 1049.38 989.44 1049.32 989.17 1049.2 988.89 1049.08 988.64 1048.9 988.43 1048.69L984.61 1044.68C984.4 1044.47 984.24 1044.22 984.13 1043.94 984.02 1043.67 983.97 1043.37 983.97 1043.08 983.97 1042.78 984.04 1042.49 984.16 1042.22 984.28 1041.94 984.45 1041.7 984.66 1041.5 984.88 1041.3 985.13 1041.13 985.4 1041.03 985.68 1040.92 985.98 1040.87 986.28 1040.88 986.57 1040.89 986.86 1040.96 987.13 1041.08 987.4 1041.21 987.65 1041.38 987.85 1041.59L991.66 1045.6C991.97 1045.92 992.17 1046.32 992.24 1046.74 992.33 1047.18 992.27 1047.62 992.1 1048.02 991.93 1048.43 991.64 1048.77 991.28 1049.01 990.91 1049.25 990.49 1049.38 990.05 1049.38V1049.38Z" fill="#ffffff" opacity="1" stroke-width="2" stroke="#344f5b"></path><path d="M998.29 1044.48C997.98 1044.48 997.68 1044.41 997.41 1044.29 997.13 1044.17 996.88 1044 996.67 1043.78L991.93 1038.81C991.72 1038.6 991.55 1038.35 991.44 1038.08 991.33 1037.8 991.28 1037.5 991.28 1037.2 991.28 1036.91 991.34 1036.62 991.46 1036.34 991.58 1036.07 991.75 1035.83 991.97 1035.62 992.19 1035.41 992.44 1035.25 992.72 1035.15 993 1035.04 993.3 1034.99 993.59 1035 993.89 1035.01 994.18 1035.08 994.45 1035.21 994.72 1035.33 994.96 1035.51 995.17 1035.73L999.91 1040.7C1000.2 1041.01 1000.41 1041.41 1000.49 1041.84 1000.56 1042.27 1000.52 1042.72 1000.35 1043.12 1000.17 1043.52 999.88 1043.87 999.52 1044.1 999.15 1044.34 998.73 1044.48 998.29 1044.48V1044.48Z" fill="#ffffff" opacity="1" stroke-width="2" stroke="#344f5b"></path><path d="M1006.53 1039.57C1006.22 1039.57 1005.93 1039.51 1005.64 1039.39 1005.37 1039.27 1005.12 1039.1 1004.91 1038.87L998.95 1032.63C998.55 1032.2 998.33 1031.62 998.36 1031.04 998.37 1030.45 998.62 1029.89 999.05 1029.49 999.47 1029.08 1000.04 1028.87 1000.63 1028.87 1001.21 1028.88 1001.78 1029.13 1002.19 1029.54L1008.15 1035.79C1008.45 1036.11 1008.65 1036.5 1008.73 1036.94 1008.8 1037.37 1008.75 1037.82 1008.58 1038.22 1008.41 1038.62 1008.12 1038.96 1007.76 1039.2 1007.39 1039.44 1006.96 1039.57 1006.53 1039.57H1006.53Z" fill="#ffffff" opacity="1" stroke-width="2" stroke="#344f5b"></path><path d="M1025.12 1059.91L1024.16 1060.21C1023.78 1060.32 1023.45 1060.56 1023.22 1060.87 1022.98 1061.18 1022.86 1061.57 1022.86 1061.96V1064.46C1022.86 1064.82 1023.01 1065.17 1023.27 1065.43 1023.53 1065.69 1023.88 1065.83 1024.24 1065.83" stroke="#344f5b" stroke-width="2" stroke-linecap="round" stroke-linejoin="round" opacity="1" fill="none"></path><path d="M1052.9 1037.2L1051.2 1039.4C1051.2 1039.4 1043.31 1043.85 1036.12 1047.87" stroke="#344f5b" stroke-width="2" stroke-linecap="round" stroke-linejoin="round" opacity="1" fill="none"></path><path d="M1055.33 1048.62C1055.01 1048.62 1054.7 1048.55 1054.42 1048.43 1054.13 1048.29 1053.87 1048.11 1053.66 1047.88 1051.12 1045.05 1046.4 1044.09 1046.35 1044.08 1045.78 1043.96 1045.27 1043.62 1044.94 1043.13 1044.61 1042.64 1044.49 1042.04 1044.6 1041.46 1044.71 1040.88 1045.05 1040.37 1045.54 1040.04 1046.03 1039.71 1046.63 1039.58 1047.21 1039.69 1047.46 1039.74 1053.45 1040.93 1056.99 1044.89 1057.28 1045.22 1057.47 1045.61 1057.54 1046.03 1057.61 1046.46 1057.55 1046.9 1057.37 1047.29 1057.2 1047.69 1056.9 1048.02 1056.55 1048.26 1056.18 1048.49 1055.76 1048.61 1055.33 1048.61L1055.33 1048.62Z" fill="#ffffff" opacity="1" stroke-width="2" stroke="#344f5b"></path><path d="M1061.38 1044C1061.06 1044 1060.76 1043.93 1060.47 1043.81 1060.18 1043.68 1059.92 1043.49 1059.71 1043.26 1057.18 1040.43 1052.46 1039.47 1052.41 1039.46 1051.84 1039.34 1051.34 1039 1051.01 1038.51 1050.69 1038.02 1050.57 1037.42 1050.68 1036.85 1050.79 1036.27 1051.13 1035.77 1051.61 1035.43 1052.09 1035.1 1052.69 1034.97 1053.26 1035.07 1053.51 1035.12 1059.5 1036.32 1063.05 1040.27 1063.34 1040.6 1063.52 1040.99 1063.59 1041.42 1063.66 1041.85 1063.6 1042.28 1063.43 1042.67 1063.25 1043.07 1062.96 1043.4 1062.6 1043.64 1062.24 1043.87 1061.82 1044 1061.38 1044L1061.38 1044Z" fill="#ffffff" opacity="1" stroke-width="2" stroke="#344f5b"></path><path d="M1065.65 1038.46C1065.34 1038.46 1065.03 1038.39 1064.74 1038.26 1064.45 1038.14 1064.19 1037.95 1063.98 1037.71 1061.45 1034.89 1056.73 1033.93 1056.68 1033.92 1056.1 1033.81 1055.59 1033.46 1055.25 1032.97 1054.92 1032.48 1054.8 1031.88 1054.91 1031.3 1055.03 1030.71 1055.36 1030.2 1055.85 1029.86 1056.35 1029.54 1056.95 1029.42 1057.53 1029.53 1057.78 1029.57 1063.77 1030.77 1067.32 1034.73 1067.61 1035.05 1067.79 1035.45 1067.86 1035.87 1067.93 1036.3 1067.87 1036.74 1067.7 1037.13 1067.52 1037.52 1067.23 1037.86 1066.87 1038.09 1066.5 1038.33 1066.09 1038.46 1065.65 1038.46V1038.46Z" fill="#ffffff" opacity="1" stroke-width="2" stroke="#344f5b"></path><path d="M1094.2 508.61L1096.13 516.52C1096.2 516.77 1096.21 517.04 1096.16 517.29 1096.12 517.56 1096.03 517.8 1095.89 518.02 1095.75 518.25 1095.57 518.44 1095.35 518.59 1095.14 518.75 1094.89 518.85 1094.64 518.9L982.51 543.15C982.23 543.2 981.94 543.2 981.66 543.15 981.39 543.09 981.13 542.96 980.9 542.79 980.68 542.62 980.49 542.41 980.36 542.15 980.23 541.91 980.14 541.63 980.13 541.35L979.37 529.99C979.34 529.51 979.49 529.04 979.78 528.66 980.08 528.28 980.5 528.02 980.97 527.93L1091.93 507.15C1092.42 507.06 1092.93 507.15 1093.36 507.43 1093.78 507.7 1094.08 508.12 1094.2 508.61V508.61Z" fill="#ffffff" opacity="1" stroke-width="2" stroke="#344f5b"></path><path d="M944.63 412.83L912.57 359.33 889.42 338.99C888.65 338.32 887.69 337.91 886.67 337.82L874.39 336.8 864.97 334.83 862.42 334.48C862.42 334.48 859.07 333.63 857.32 333.17 856.99 333.04 856.61 333.05 856.28 333.18 855.94 333.32 855.67 333.58 855.52 333.9 855.26 334.4 855.18 334.98 855.29 335.53 855.4 336.08 855.68 336.58 856.11 336.95L856.13 336.97C856.13 336.97 854.27 336.83 853.07 336.85 851.87 336.88 851.11 340.04 852.82 341.05 854.53 342.06 855.18 342.44 855.18 342.44L854.2 342.65C853.6 342.78 852.31 345.64 854.45 346.8 856.59 347.95 860.73 348.21 860.73 348.21L865.6 349.76 866.15 351.33C866.29 351.69 866.47 352.03 866.69 352.35L864.55 352.97C864.27 353.05 864.01 353.17 863.77 353.32L862.52 354.14C862.52 354.14 861.27 354.49 859.91 354.7 858.57 354.92 859.3 357.51 861.87 357.52 863.35 357.53 864.83 357.39 866.29 357.12L868.66 356.62 873.8 356.11 881.72 357.93 886.5 363.52C888.27 365.6 890.7 366.99 893.38 367.47L897.65 380.49 918.12 438.71C924.34 455.67 936.1 475.72 941.62 484.74 942.53 486.22 943.79 487.44 945.3 488.28 946.8 489.13 948.51 489.57 950.24 489.57H960.04L965.89 439.18 944.63 412.83Z" fill="#ffffff" opacity="1" stroke-width="2" stroke="#344f5b"></path><path d="M941.62 484.74C942.52 486.22 943.79 487.44 945.3 488.28 946.8 489.13 948.5 489.57 950.23 489.57H960.04L963.41 460.5 962.32 461.11C960.86 461.93 959.25 462.46 957.59 462.64 955.92 462.84 954.24 462.69 952.63 462.22 951.02 461.75 949.53 460.96 948.23 459.9 946.93 458.84 945.86 457.53 945.07 456.06 936.24 439.38 924.56 412.66 924.56 412.66L907.47 369.64C906.66 367.61 905.24 365.88 903.4 364.69 901.56 363.5 899.39 362.92 897.21 363.03L886.5 363.53C888.26 365.6 890.7 367 893.38 367.48L897.65 380.49 918.12 438.71C924.34 455.67 936.1 475.72 941.62 484.74Z" fill="#808080" opacity="0.3" stroke-width="2" stroke="#ffffff00"></path><path d="M960.04 489.57L960.23 487.91C959.56 485.62 958.4 483.52 956.83 481.72 955.27 479.92 953.33 478.49 951.16 477.51 948.99 476.53 946.63 476.04 944.25 476.06 941.86 476.08 939.52 476.61 937.36 477.63 938.99 480.41 940.45 482.83 941.62 484.74 942.52 486.22 943.79 487.44 945.3 488.29 946.8 489.13 948.5 489.58 950.23 489.58L960.04 489.57Z" fill="#808080" opacity="0.3" stroke-width="2" stroke="#ffffff00"></path><path d="M900.42 394.99L897.83 392.48C897.72 392.38 897.63 392.25 897.57 392.11 897.51 391.97 897.48 391.81 897.47 391.66 897.47 391.51 897.5 391.35 897.55 391.21 897.61 391.06 897.7 390.93 897.81 390.82L919.21 368.7C919.31 368.58 919.44 368.5 919.58 368.44 919.73 368.38 919.88 368.34 920.04 368.34 920.19 368.33 920.34 368.36 920.49 368.42 920.63 368.47 920.77 368.56 920.87 368.67L923.46 371.17C923.58 371.28 923.67 371.41 923.72 371.55 923.78 371.69 923.82 371.85 923.82 372.01 923.83 372.15 923.8 372.31 923.74 372.45 923.69 372.6 923.6 372.73 923.49 372.84L902.09 394.96C901.98 395.08 901.85 395.17 901.71 395.23 901.57 395.29 901.41 395.32 901.27 395.32 901.11 395.32 900.95 395.3 900.81 395.24 900.67 395.18 900.53 395.1 900.42 394.99V394.99Z" fill="#ffffff" opacity="1" stroke-width="2" stroke="#344f5b"></path><path d="M866.69 352.36C866.84 352.78 867.14 353.12 867.52 353.32 867.82 353.58 868.15 353.79 868.49 353.96 869.23 354.31 870.15 354.74 871.09 355.13 871.99 355.48 873.8 356.12 873.8 356.12" stroke="#344f5b" stroke-width="2" stroke-linecap="round" stroke-linejoin="round" opacity="1" fill="none"></path><path d="M888.02 348.05L886.52 348.75C884.61 349.63 882.45 349.77 880.44 349.14L876.45 347.86C875.93 347.7 875.38 347.62 874.83 347.62L872.51 347.65C872.51 347.65 869.52 346.86 867.9 346.51 865.03 345.91 865.62 349.69 865.6 349.76" stroke="#344f5b" stroke-width="2" stroke-linecap="round" stroke-linejoin="round" opacity="1" fill="none"></path><path d="M885.36 349.18C884.9 348.32 883.87 346.48 883.87 346.48L877.59 344.25 871.92 342.52 864.92 341.12C863.19 340.65 861.48 340.07 859.82 339.38 858.85 338.9 857.93 338.35 857.06 337.7L856.12 336.97" stroke="#344f5b" stroke-width="2" stroke-linecap="round" stroke-linejoin="round" opacity="1" fill="none"></path><path d="M867.9 346.51L863.83 344.34 858.58 343.55C858.58 343.55 857.67 343.29 856.12 342.76L855.18 342.44" stroke="#344f5b" stroke-width="2" stroke-linecap="round" stroke-linejoin="round" opacity="1" fill="none"></path><path d="M893.38 367.48C895.03 368 896.74 368.26 898.46 368.26" stroke="#344f5b" stroke-width="2" stroke-linecap="round" stroke-linejoin="round" opacity="1" fill="none"></path><path d="M973.38 297.44L971.23 310.06 970 316.39C969.93 316.74 969.94 317.1 970.03 317.44 970.11 317.79 970.27 318.11 970.49 318.38 970.71 318.66 970.98 318.88 971.3 319.04 971.62 319.2 971.96 319.29 972.31 319.3L973.83 319.36C975.63 319.42 977.42 319.13 979.11 318.52L981.09 317.8 981.67 313.99C981.78 313.22 981.72 312.42 981.5 311.68 981.27 310.92 980.87 310.24 980.34 309.66L978.52 307.66 973.38 297.44Z" fill="#ffffff" opacity="1" stroke-width="2" stroke="#344f5b"></path><path d="M976.85 314.16C976.63 314.25 976.4 314.3 976.17 314.3 974.71 314.3 972.24 312.6 968.72 304.51 964.53 294.87 965.97 292.53 967.21 291.99 967.42 291.9 967.65 291.85 967.88 291.85 969.35 291.85 971.82 293.55 975.33 301.64 979.52 311.28 978.08 313.62 976.85 314.16ZM968.75 295.97C969.27 298.55 970.08 301.06 971.18 303.44 972.16 305.82 973.4 308.08 974.87 310.18 974.93 310.22 974.99 310.26 975.06 310.27 975.09 310.27 975.12 310.26 975.15 310.24 975.18 310.23 975.21 310.21 975.23 310.18 975.25 310.16 975.27 310.13 975.28 310.1 975.28 310.07 975.28 310.04 975.28 310.01 974.75 307.49 973.94 305.04 972.88 302.71 971.89 300.3 970.62 298.01 969.11 295.88 968.91 295.62 968.7 295.75 968.75 295.97Z" fill="#ffffff" opacity="1" stroke-width="2" stroke="#344f5b"></path><path d="M1040.59 288.7C1036.96 276.7 1035.94 270.55 1032.42 265.41 1028.89 260.26 1021.43 253.8 1013.36 253.3 1005.29 252.8 985.93 256.23 976.95 269.33 973.65 274.18 970.5 286.28 972.01 292.93 973.53 299.59 984.82 327.02 984.82 327.02 986.18 329.2 988.17 330.92 990.53 331.95 992.89 332.98 995.5 333.26 998.03 332.76L1007.1 331.15 1010.49 344.2C1010.98 349.49 1012.06 352.85 1013.34 355.15L1014.43 359.33 1058.11 318.73C1056.21 317.17 1054.65 315.26 1053.51 313.09 1048.69 304.1 1040.59 288.7 1040.59 288.7Z" fill="#ffffff" opacity="1" stroke-width="2" stroke="#344f5b"></path><path d="M1023.68 291.89C1023.68 291.89 1023.49 291.67 1023.16 291.3 1022.45 295.71 1020.27 300.14 1016.23 302.69 1015.49 303.06 1014.88 302.71 1014.12 302.02L1010.08 314.12C1008.62 318.51 1005.58 322.2 1001.57 324.48L989.41 331.4C992.02 332.88 995.08 333.36 998.03 332.76L1007.1 331.15 1010.5 344.2C1010.7 346.78 1011.01 348.22 1012.01 350.01L1013.23 348.43C1017.19 343.27 1019.79 337.2 1020.76 330.77L1023.17 314.75C1023.52 312.38 1024.27 310.1 1025.39 307.99 1028.03 303.07 1027.01 296.9 1025.41 292.08L1023.68 291.89Z" fill="#808080" opacity="0.3" stroke-width="2" stroke="#ffffff00"></path><path d="M996.94 302.99C999.67 299.91 999.56 295.36 996.69 292.81 993.83 290.27 989.29 290.71 986.57 293.78 983.85 296.85 983.95 301.41 986.82 303.95 989.68 306.49 994.21 306.06 996.94 302.99Z" fill="#ffffff00" opacity="0" stroke-width="2" stroke="#ffffff00"></path><path d="M1015.74 305.24C1015.71 304.62 1015.55 304.01 1015.27 303.46 1015 302.9 1014.6 302.41 1014.12 302.02 1012.16 300.39 1008.97 296.8 1008.74 290.43 1008.74 290.42 1008.74 290.41 1008.74 290.4 1008.74 290.39 1008.73 290.39 1008.72 290.38 1008.71 290.37 1008.7 290.36 1008.69 290.36 1008.68 290.36 1008.67 290.36 1008.66 290.36L1003.5 291.12C1003.48 291.12 1003.47 291.13 1003.46 291.15L995.51 301.62C994.26 303.27 993.56 305.27 993.52 307.34L993.38 313.86C993.38 313.87 993.37 313.89 993.36 313.9 993.36 313.92 993.35 313.93 993.33 313.93 993.32 313.93 993.3 313.93 993.29 313.93 993.27 313.93 993.26 313.93 993.25 313.91L988.41 308.78C988.24 308.6 988.04 308.46 987.83 308.37 987.61 308.27 987.37 308.22 987.13 308.22 986.89 308.21 986.66 308.25 986.43 308.34 986.22 308.43 986.02 308.57 985.84 308.74L979.85 314.67C982.51 321.42 984.82 327.01 984.82 327.01 986.18 329.2 988.17 330.92 990.52 331.94 992.89 332.97 995.5 333.26 998.03 332.76L1007.1 331.15C1007.1 331.15 1008.71 329.34 1010.64 326.89 1014.35 322.23 1016.24 316.38 1015.97 310.42L1015.74 305.24Z" fill="#ffffff" opacity="0.4" stroke-width="2" stroke="#344f5b"></path><path d="M979.35 298.98C978.91 298.98 978.49 298.86 978.12 298.62 977.76 298.38 977.47 298.05 977.3 297.64L976.85 296.63C976.62 296.09 976.6 295.47 976.82 294.92 977.04 294.36 977.47 293.92 978 293.69 978.55 293.45 979.17 293.44 979.72 293.66 980.27 293.87 980.72 294.3 980.95 294.84L981.4 295.85C981.54 296.2 981.6 296.57 981.57 296.94 981.54 297.31 981.42 297.67 981.22 297.98 981.02 298.28 980.73 298.54 980.41 298.72 980.08 298.9 979.72 298.98 979.35 298.98L979.35 298.98Z" fill="#ffffff" opacity="1" stroke-width="2" stroke="#344f5b"></path><path d="M1043.48 294.19L1025.41 292.09 1023.68 291.89C1023.68 291.89 1023.49 291.67 1023.16 291.3 1023.49 289.51 1023.38 287.66 1022.82 285.91 1022.38 284.62 1021.51 283.51 1020.35 282.78 1017.33 280.92 1014.8 281.26 1012.48 282.61 1011.87 282.8 1011.33 283.13 1010.9 283.6 1010.46 284.05 1010.16 284.62 1010.02 285.23 1009.99 285.28 1009.96 285.33 1009.94 285.38 1009.03 286.85 1008.62 288.56 1008.74 290.28 1008.74 290.3 1008.73 290.32 1008.72 290.33 1008.71 290.35 1008.69 290.36 1008.67 290.36L1003.53 291.12C1003.52 291.12 1003.5 291.12 1003.49 291.12 1003.47 291.11 1003.47 291.09 1003.46 291.08L1001.93 287.52 1000.76 284.79 1000.64 284.5C1000.3 283.72 999.79 283.03 999.15 282.48 998.52 281.92 997.76 281.52 996.95 281.3L994.08 280.54C993.24 280.32 992.48 279.86 991.89 279.21 991.3 278.57 990.9 277.78 990.75 276.93 989.92 272.43 989.43 266.11 989.37 265.26 989.36 265.24 989.35 265.22 989.33 265.21 989.32 265.2 989.31 265.2 989.3 265.19 989.29 265.19 989.28 265.19 989.27 265.2 985.2 266.53 976.27 270.44 976.27 270.44 972.48 269.01 967.74 266 964.9 264.08 964.63 263.89 964.41 263.64 964.28 263.34 964.14 263.05 964.08 262.72 964.11 262.4 964.14 262.07 964.27 261.75 964.46 261.49 964.66 261.23 964.92 261.02 965.22 260.9 968.43 259.62 971.7 258.51 975.02 257.57L967.21 253.82C966.93 253.68 966.7 253.48 966.54 253.21 966.38 252.95 966.31 252.64 966.32 252.33 966.33 252.02 966.44 251.72 966.62 251.47 966.8 251.23 967.06 251.03 967.35 250.93 971.67 249.34 979.23 246.81 984.8 246.37 993.05 245.73 1007.17 247.79 1007.17 247.79 1006.83 246.72 1006.65 245.59 1006.64 244.47 1006.63 244.32 1006.66 244.18 1006.73 244.06 1006.8 243.93 1006.9 243.83 1007.01 243.74 1007.14 243.67 1007.28 243.62 1007.42 243.62 1007.57 243.61 1007.71 243.64 1007.83 243.71 1011.75 245.77 1022.63 248.97 1024.44 251.92 1025.91 254.44 1027.18 257.07 1028.26 259.77 1028.26 259.79 1028.27 259.8 1028.28 259.81 1028.3 259.82 1028.31 259.82 1028.33 259.82 1031.55 259.97 1035.25 261.49 1037.37 262.49 1037.54 262.57 1037.71 262.71 1037.83 262.87 1037.95 263.04 1038.01 263.24 1038.04 263.44 1038.06 263.65 1038.03 263.85 1037.95 264.04 1037.87 264.23 1037.74 264.39 1037.58 264.52 1036.85 265.09 1036.32 265.88 1036.06 266.77 1035.81 267.66 1035.84 268.61 1036.16 269.48 1038.04 274.77 1040.18 283.81 1041.06 287 1042.15 290.91 1043.48 294.19 1043.48 294.19Z" fill="#ffffff" opacity="1" stroke-width="2" stroke="#344f5b"></path><path d="M1012.48 282.61C1011.47 283.37 1010.61 284.31 1009.94 285.38 1008.35 285.37 1006.77 285.66 1005.29 286.23L1001.93 287.52 968.82 300.33C968.64 300.4 968.46 300.43 968.27 300.43 967.92 300.43 967.59 300.3 967.33 300.08 967.06 299.86 966.88 299.55 966.82 299.22 966.75 298.87 966.81 298.52 966.98 298.22 967.15 297.92 967.41 297.68 967.74 297.55L1000.76 284.79 1004.22 283.45C1006.84 282.43 1009.7 282.14 1012.48 282.61V282.61Z" fill="#ffffff" opacity="1" stroke-width="2" stroke="#344f5b"></path><path d="M1023.16 291.3L1022.82 292.9C1021.79 296.82 1019.47 300.27 1016.23 302.69 1016.23 302.69 1015.36 303.29 1014.12 302.02" stroke="#344f5b" stroke-width="2" stroke-linecap="round" stroke-linejoin="round" opacity="1" fill="none"></path><path d="M1013.03 294.3C1010.73 288.92 1014.35 283.76 1018.62 285.55" stroke="#344f5b" stroke-width="2" stroke-linecap="round" stroke-linejoin="round" opacity="1" fill="none"></path><path d="M1012.56 292.9C1011.9 288.61 1016.9 287.18 1018.04 290.35" stroke="#344f5b" stroke-width="2" stroke-linecap="round" stroke-linejoin="round" opacity="1" fill="none"></path><path d="M1097.82 500.65C1099.26 498.53 1100.21 496.12 1100.6 493.59 1100.98 491.06 1100.78 488.47 1100.04 486.03L1094.46 467.75C1093.46 464.48 1093.26 461.01 1093.88 457.65 1096.15 445.26 1101.53 412.66 1100 389.95 1098.76 371.59 1070.5 329.88 1069.57 328.52 1069.57 328.52 1069.57 328.5 1069.57 328.49 1069.57 328.48 1069.57 328.46 1069.57 328.45L1070.06 327.57C1070.27 327.2 1070.37 326.78 1070.35 326.36 1070.33 325.93 1070.18 325.52 1069.94 325.18L1060.91 312.29C1060.56 311.79 1060.05 311.44 1059.46 311.3 1058.87 311.16 1058.25 311.24 1057.72 311.53L1053.8 313.64 1054.98 315.83C1054.99 315.85 1055 315.86 1054.99 315.88 1054.99 315.89 1054.98 315.91 1054.97 315.92L1013.34 355.14 1010.49 344.19 1001.25 354.49C1000.64 355.08 1000.18 355.82 999.91 356.63 999.65 357.44 999.59 358.31 999.73 359.15 1000.2 361.89 1000.99 366.16 1001.87 369.4 1000.03 371.42 999.5 373.64 999.18 375.97L991.97 431.82 987.54 431.64C985.88 431.57 984.22 431.76 982.62 432.22L969.04 436.16C968.08 436.43 967.25 437.05 966.71 437.89L965.89 439.18 954.08 490.56C954.08 490.59 954.08 490.6 954.09 490.62 954.1 490.64 954.11 490.65 954.14 490.65L960.51 492.57H960.55L977.69 490.4 972.36 507.95C971.61 510.44 971.36 513.05 971.62 515.65 971.88 518.23 972.66 520.75 973.9 523.03L977.62 529.87C977.62 529.87 998.12 526.58 1022.57 522.14L1032 531.02 1051.65 549.52 1060.69 558.03 1061.45 558.75C1061.67 558.97 1061.95 559.13 1062.25 559.23 1062.55 559.32 1062.87 559.35 1063.18 559.32 1063.49 559.28 1063.8 559.17 1064.06 559 1064.33 558.84 1064.56 558.62 1064.73 558.35L1069.94 550.25C1070.51 549.35 1070.9 548.34 1071.06 547.28L1071.28 545.85C1071.34 545.43 1071.31 544.99 1071.18 544.58 1071.05 544.17 1070.83 543.79 1070.53 543.48L1068.19 541.04 1071.88 535.15C1072.96 533.41 1073.46 531.36 1073.3 529.31L1072.29 516.2C1072.18 514.86 1072.24 513.5 1072.46 512.17 1080.18 510.42 1087.03 508.69 1092.3 507.09 1094.37 505.14 1096.21 502.99 1097.82 500.65V500.65Z" fill="#ffffff" opacity="1" stroke-width="2" stroke="#344f5b"></path><path d="M1006.49 361.11L1003.39 357.44H1001.55L1000.48 357.44" stroke="#344f5b" stroke-width="2" stroke-linecap="round" stroke-linejoin="round" opacity="1" fill="none"></path><path d="M986.43 528.44L1021.69 511.53" stroke="#344f5b" stroke-width="2" stroke-linecap="round" stroke-linejoin="round" opacity="1" fill="none"></path><path d="M991.72 433.65L985.99 463.04 977.74 490.4" stroke="#344f5b" stroke-width="2" stroke-linecap="round" stroke-linejoin="round" opacity="1" fill="none"></path><path d="M1020.06 517.78L1023.1 515.3 1019.27 505.01 1021.87 498.02C1022.68 495.84 1023.06 493.52 1022.98 491.2 1022.66 481.64 1021.78 454.92 1021.32 440.03 1021.32 440.03 1017.63 430.47 1015.27 422.6L1010.19 438.58C1008.88 442.69 1008.35 447.02 1008.63 451.33L1010.1 473.92C1010.62 481.98 1009.92 490.06 1008.02 497.9L1007.39 500.51C1006.4 504.58 1004.19 508.25 1001.07 511.03 997.94 513.81 994.03 515.57 989.88 516.07L972.06 518.22C972.46 519.9 973.08 521.52 973.9 523.03L977.62 529.87C977.62 529.87 998.12 526.58 1022.57 522.13L1021.31 520.95 1020 519.72C1019.86 519.59 1019.76 519.44 1019.69 519.27 1019.62 519.1 1019.59 518.92 1019.59 518.73 1019.6 518.55 1019.65 518.37 1019.73 518.2 1019.81 518.04 1019.92 517.9 1020.06 517.78V517.78Z" fill="#808080" opacity="0.3" stroke-width="2" stroke="#ffffff00"></path><path d="M1078.11 501.02C1076.79 501.59 1075.45 502.12 1074.1 502.64 1073.4 506.73 1072.84 509.95 1072.49 511.91 1072.48 512 1072.46 512.09 1072.46 512.18 1080.18 510.42 1087.03 508.7 1092.3 507.09 1094.37 505.15 1096.21 502.99 1097.82 500.65 1099.71 497.88 1100.74 494.61 1100.77 491.26L1078.11 501.02Z" fill="#808080" opacity="0.3" stroke-width="2" stroke="#ffffff00"></path><path d="M1003.37 366.48C1003.37 366.48 1006.69 364.88 1007.8 364.37L1013.01 361.98C1013.81 361.98 1014.6 362.18 1015.31 362.58 1016.01 362.98 1016.6 363.55 1017.02 364.25L1026.02 379.29C1026.23 379.63 1026.5 379.91 1026.84 380.12 1027.18 380.33 1027.56 380.46 1027.95 380.49 1028.34 380.52 1028.74 380.45 1029.1 380.29 1029.47 380.14 1029.79 379.9 1030.04 379.59 1037.25 370.83 1060 342.98 1068.19 330.52L1069.55 328.49" stroke="#344f5b" stroke-width="2" stroke-linecap="round" stroke-linejoin="round" opacity="1" fill="none"></path><path d="M1072.46 512.17C1072.46 512.17 1072.81 510.12 1072.99 509.1 1075.15 496.82 1085.94 434.75 1086.24 420.19 1086.59 404 1079.04 381.8 1050.55 384.89 1022.07 387.98 1020.7 419.56 1021.18 435.68 1021.61 449.79 1022.75 484.34 1023.04 492.82 1023.07 494.07 1022.87 495.32 1022.44 496.5L1020.49 501.74C1019.71 503.85 1019.71 506.17 1020.49 508.28L1023.1 515.3 1020.11 517.74C1019.97 517.86 1019.85 518.01 1019.76 518.18 1019.68 518.35 1019.63 518.55 1019.62 518.73 1019.62 518.93 1019.65 519.12 1019.72 519.29 1019.79 519.47 1019.9 519.63 1020.04 519.76L1021.31 520.95" stroke="#344f5b" stroke-width="2" stroke-linecap="round" stroke-linejoin="round" opacity="1" fill="none"></path><path d="M984.13 317.7C984.88 316.97 985.47 316.08 985.87 315.11 986.27 314.14 986.47 313.1 986.46 312.05" stroke="#344f5b" stroke-width="2" stroke-linecap="round" stroke-linejoin="round" opacity="1" fill="none"></path><path d="M985.68 447.29C985.68 447.31 985.69 447.33 985.7 447.34 985.7 447.35 985.72 447.35 985.72 447.36 985.73 447.37 985.74 447.37 985.75 447.37L989.03 447.46 991.72 433.65 999.56 375.97C999.97 372.94 1001.18 370.07 1003.07 367.65L1007.94 361.42 1012.45 357.06C1012.75 356.42 1013.04 355.78 1013.34 355.15L1010.49 344.2C987.82 385.77 985.78 443.82 985.68 447.29Z" fill="#ffffff" opacity="1" stroke-width="2" stroke="#344f5b"></path><path d="M1068.19 541.04L1043.89 522.93 1023.1 515.3" stroke="#344f5b" stroke-width="2" stroke-linecap="round" stroke-linejoin="round" opacity="1" fill="none"></path><path d="M1043.89 522.93L1061.41 528.99C1062.21 529.26 1062.94 529.71 1063.55 530.29 1064.16 530.87 1064.64 531.58 1064.95 532.36L1065.59 533.96" stroke="#344f5b" stroke-width="2" stroke-linecap="round" stroke-linejoin="round" opacity="1" fill="none"></path><path d="M1029.94 497.18L1038.55 494.28C1052.67 489.53 1065.39 481.35 1075.58 470.47" stroke="#344f5b" stroke-width="2" stroke-linecap="round" stroke-linejoin="round" opacity="1" fill="none"></path><path d="M1013.97 415.96C1015.29 426.47 1021.32 440.03 1021.32 440.03" stroke="#344f5b" stroke-width="2" stroke-linecap="round" stroke-linejoin="round" opacity="1" fill="none"></path><path d="M1084.93 434.02C1088.55 429.88 1091.14 424.94 1092.49 419.61" stroke="#344f5b" stroke-width="2" stroke-linecap="round" stroke-linejoin="round" opacity="1" fill="none"></path><path d="M1017.78 522.62L1017.6 521.88 1017.42 521.15C1017.37 520.96 1017.27 520.8 1017.11 520.67 1016.96 520.55 1016.77 520.48 1016.58 520.48H926.33C924.51 520.48 922.7 520.71 920.92 521.15L841.18 540.85C841.05 540.88 840.93 540.93 840.83 541.01 840.73 541.08 840.64 541.18 840.58 541.29 840.51 541.4 840.47 541.52 840.45 541.65 840.43 541.77 840.44 541.9 840.47 542.03L841.01 544.23C841.22 545.08 841.71 545.84 842.4 546.39 843.1 546.93 843.95 547.22 844.83 547.22H874.64L949.19 553.42 1012.72 524.96 1017.18 523.67C1017.4 523.61 1017.58 523.46 1017.69 523.26 1017.8 523.07 1017.83 522.84 1017.78 522.62V522.62Z" fill="#ffffff" opacity="1" stroke-width="2" stroke="#344f5b"></path><path d="M910.13 528.87L885.33 534.99C885.13 535.04 884.96 535.16 884.84 535.33 884.72 535.49 884.67 535.7 884.7 535.9 884.72 536.1 884.82 536.29 884.98 536.42 885.12 536.56 885.33 536.63 885.53 536.63H929.79C930.9 536.63 932.01 536.5 933.09 536.23L958.79 529.88C958.96 529.84 959.1 529.74 959.2 529.6 959.29 529.46 959.34 529.28 959.32 529.12 959.29 528.95 959.21 528.79 959.08 528.68 958.96 528.56 958.79 528.5 958.62 528.5H913.14C912.12 528.5 911.11 528.62 910.13 528.87V528.87Z" fill="#ffffff" opacity="1" stroke-width="2" stroke="#344f5b"></path><path d="M841.75 541.14H928.95C932.08 541.14 935.2 540.76 938.24 540.01L1011.97 521.8 1016.02 520.77" stroke="#344f5b" stroke-width="2" stroke-linecap="round" stroke-linejoin="round" opacity="1" fill="none"></path><path d="M926.54 543.5H845.35C843.6 543.5 841.88 543.03 840.39 542.12 838.89 541.22 837.67 539.91 836.86 538.36L800.36 468.51C800.03 467.9 799.87 467.21 799.9 466.52 799.92 465.82 800.12 465.15 800.48 464.55 800.84 463.95 801.35 463.46 801.95 463.12 802.56 462.78 803.24 462.61 803.94 462.61H885.13C886.88 462.6 888.6 463.08 890.09 463.98 891.59 464.89 892.81 466.19 893.63 467.75L930.13 537.59C930.45 538.2 930.61 538.9 930.59 539.59 930.57 540.28 930.36 540.96 930 541.56 929.64 542.15 929.14 542.65 928.53 542.98 927.92 543.32 927.24 543.5 926.54 543.5V543.5Z" fill="#ffffff" opacity="1" stroke-width="2" stroke="#344f5b"></path><path d="M1060.69 558.03C1058.56 560.55 1055.53 562.14 1052.25 562.45 1035.94 563.96 1001.81 567.07 961.36 567.07 952.08 567.07 942.47 566.9 932.67 566.52 915.62 567.36 892.02 564.11 884.74 563.02 884.04 562.92 883.4 562.64 882.84 562.21 882.29 561.79 881.86 561.22 881.59 560.58 880.74 558.59 879.82 556.25 879.18 554.62L876.36 552.33C875.82 551.91 875.43 551.33 875.22 550.68L872.7 542.83C872.46 541.14 872.08 539.46 871.55 537.83 871.08 536.54 872.51 536.46 873.89 537.42 873.51 536.03 873.14 534.66 872.81 533.41L872.56 530.01C872.56 530.01 872.19 528.55 871.76 526.91 871.16 524.59 873.68 524.46 873.68 524.46 873.68 524.46 873.33 523.27 872.47 521.03 872.08 519.98 874.5 518.46 876.63 520.63 877.2 521.26 877.71 521.94 878.16 522.66 878.64 521.48 879.77 520.92 882.01 522.66 883.3 523.84 884.48 525.13 885.54 526.51 886.46 527.66 887.12 528.99 887.5 530.4L889.38 537.46 894.3 544.84 898.02 547.22 931.13 547.21H931.15C934.37 547.1 937.57 546.6 940.68 545.71L1012.72 524.96 1017.18 523.67C1017.4 523.61 1017.58 523.46 1017.69 523.27 1017.8 523.07 1017.84 522.84 1017.79 522.62L1017.6 521.88 1021.31 520.95 1032 531.02 1060.69 558.03Z" fill="#ffffff" opacity="1" stroke-width="2" stroke="#344f5b"></path><path d="M861.32 510.84C863.68 509.5 863.6 504.92 861.15 500.62 858.7 496.32 854.8 493.92 852.45 495.26 850.09 496.6 850.17 501.18 852.62 505.48 855.07 509.78 858.97 512.18 861.32 510.84Z" fill="#ffffff" opacity="1" stroke-width="2" stroke="#344f5b"></path><path d="M1060.69 558.03C1058.56 560.55 1055.53 562.14 1052.25 562.45 1035.94 563.96 1001.81 567.07 961.36 567.07 952.08 567.07 942.47 566.9 932.67 566.52 915.62 567.36 892.02 564.11 884.74 563.02 884.04 562.92 883.4 562.64 882.84 562.21 882.29 561.79 881.86 561.22 881.59 560.58 880.74 558.59 879.82 556.25 879.18 554.62L876.36 552.33C875.82 551.91 875.43 551.33 875.22 550.68L872.7 542.83C872.46 541.14 872.08 539.46 871.55 537.83 871.08 536.54 872.51 536.46 873.89 537.42 873.51 536.03 873.14 534.66 872.81 533.41L872.56 530.01C872.56 530.01 872.19 528.55 871.76 526.91 871.16 524.59 873.68 524.46 873.68 524.46 873.68 524.46 873.33 523.27 872.47 521.03 872.08 519.98 874.5 518.46 876.63 520.63 877.2 521.26 877.71 521.94 878.16 522.66 878.64 521.48 879.77 520.92 882.01 522.66 883.3 523.84 884.48 525.13 885.54 526.51 886.46 527.66 887.12 528.99 887.5 530.4L889.38 537.46 894.3 544.84 898.02 547.22 931.13 547.21H931.15C934.37 547.1 937.57 546.6 940.68 545.71L1012.72 524.96C1010.18 528.03 1006.82 530.3 1003.04 531.53L931.73 554.61 926.79 556.3C926.49 556.39 926.24 556.6 926.08 556.86 925.92 557.12 925.86 557.44 925.9 557.74 925.95 558.05 926.09 558.33 926.33 558.53 926.56 558.74 926.85 558.86 927.17 558.87L932.08 559.03C942.58 557.71 977.53 555.04 977.53 555.04L1020.98 549.05C1024.03 548.63 1026.83 547.12 1028.86 544.79 1030.88 542.47 1032 539.49 1032 536.4V531.02L1060.69 558.03Z" fill="#808080" opacity="0.3" stroke-width="2" stroke="#ffffff00"></path><path d="M969.15 439.05L971.77 487.35" stroke="#344f5b" stroke-width="2" stroke-linecap="round" stroke-linejoin="round" opacity="1" fill="none"></path><path d="M1019.63 518.69L1068.19 545.24 1071.15 546.8" stroke="#344f5b" stroke-width="2" stroke-linecap="round" stroke-linejoin="round" opacity="1" fill="none"></path><path d="M971.77 482.58C975.29 469.38 977.96 454.13 978.97 447.98 979.26 446.19 978.97 444.35 978.15 442.72L976.53 439.56" stroke="#344f5b" stroke-width="2" stroke-linecap="round" stroke-linejoin="round" opacity="1" fill="none"></path><path d="M998.61 427.1L1006.81 425.82 1007.49 419.88 999.28 421.17 998.61 427.1Z" stroke="#344f5b" stroke-width="2" stroke-linecap="round" stroke-linejoin="round" opacity="1" fill="none"></path><path d="M1055.01 315.89L1057.55 313.21C1057.55 313.21 1059.56 311.27 1057.72 311.53" stroke="#344f5b" stroke-width="2" stroke-linecap="round" stroke-linejoin="round" opacity="1" fill="none"></path><path d="M991.72 496.66C991.72 497.4 991.48 498.11 991.02 498.68 990.57 499.26 989.93 499.66 989.21 499.83L984.66 500.92C984.35 500.98 984.04 500.99 983.74 500.92 983.44 500.86 983.16 500.72 982.92 500.53 982.68 500.33 982.48 500.1 982.34 499.81 982.21 499.54 982.14 499.23 982.14 498.93V463.08C982.14 462.34 982.39 461.63 982.84 461.06 983.3 460.48 983.94 460.07 984.65 459.91L989.2 458.83C989.5 458.75 989.82 458.75 990.12 458.82 990.42 458.89 990.7 459.02 990.95 459.21 991.19 459.4 991.39 459.65 991.52 459.92 991.66 460.21 991.72 460.51 991.72 460.82V496.66Z" fill="#ffffff" opacity="1" stroke-width="2" stroke="#344f5b"></path><path d="M989.46 443.39C987.94 443.16 986.39 443.49 985.09 444.33 983.79 445.16 982.86 446.44 982.44 447.93 982.02 449.41 982.16 450.99 982.83 452.37 983.5 453.76 984.65 454.86 986.07 455.45 986.09 455.46 986.1 455.47 986.1 455.48 986.12 455.5 986.12 455.52 986.12 455.53L985.31 460.85C985.26 461.23 985.35 461.64 985.59 461.96 985.82 462.27 986.17 462.49 986.57 462.55 986.64 462.55 986.72 462.56 986.79 462.56 987.14 462.56 987.49 462.43 987.76 462.2 988.03 461.96 988.21 461.64 988.26 461.29L989.06 455.99C989.06 455.97 989.07 455.95 989.09 455.94 989.09 455.93 989.12 455.92 989.13 455.92 990.66 455.77 992.09 455.07 993.14 453.94 994.19 452.81 994.79 451.35 994.83 449.8 994.87 448.26 994.35 446.76 993.36 445.58 992.37 444.4 990.99 443.62 989.46 443.39L989.46 443.39ZM991.81 450.13C991.7 450.9 991.32 451.6 990.75 452.11 990.17 452.63 989.44 452.93 988.67 452.96 987.9 453 987.14 452.77 986.52 452.31 985.9 451.84 985.46 451.18 985.28 450.44 985.1 449.68 985.17 448.89 985.51 448.2 985.84 447.5 986.4 446.94 987.1 446.61 987.8 446.29 988.59 446.21 989.34 446.4 990.08 446.59 990.75 447.03 991.2 447.66 991.46 448.01 991.65 448.41 991.75 448.83 991.86 449.26 991.88 449.7 991.82 450.13H991.81Z" fill="#ffffff" opacity="1" stroke-width="2" stroke="#344f5b"></path><path d="M932.93 547.09L936.96 568.58C937.09 569.26 937.47 569.87 938.02 570.28 938.56 570.69 939.25 570.89 939.93 570.83L951.06 569.8C951.44 569.76 951.81 569.65 952.15 569.47 952.48 569.28 952.77 569.03 953 568.72 953.24 568.41 953.41 568.06 953.5 567.68 953.58 567.31 953.59 566.92 953.53 566.54L949.23 543.25 940.68 545.71C938.14 546.43 935.55 546.89 932.93 547.09Z" fill="#ffffff" opacity="1" stroke-width="2" stroke="#344f5b"></path><path d="M911.24 560.07L899.39 558.06C898.56 557.91 897.79 557.55 897.14 557.01L892.97 553.44C892.97 553.44 890.14 551.71 889.19 551.23 885.53 549.37 888.31 545.69 891.94 546.22 893.36 546.35 894.73 546.8 895.95 547.53 896.65 547.7 897.18 547.16 898.02 547.22" stroke="#344f5b" stroke-width="2" stroke-linecap="round" stroke-linejoin="round" opacity="1" fill="none"></path><path d="M887.15 551.83L882.04 538.72 880.9 532.12 880.3 528.43 878.55 524.52C878.55 524.52 877.91 523.09 878.16 522.66" stroke="#344f5b" stroke-width="2" stroke-linecap="round" stroke-linejoin="round" opacity="1" fill="none"></path><path d="M882.04 553.44L881.37 549.32 878.81 542.82 876.5 534.18 875.49 529.41 874.38 526.58 873.69 524.46" stroke="#344f5b" stroke-width="2" stroke-linecap="round" stroke-linejoin="round" opacity="1" fill="none"></path><path d="M879.18 554.62L878.16 551.83 877.56 549.84 875.79 543.99 874.17 538.4 873.89 537.43" stroke="#344f5b" stroke-width="2" stroke-linecap="round" stroke-linejoin="round" opacity="1" fill="none"></path><path d="M992.07 451.21C992.07 451.22 992.07 451.23 992.06 451.23 992.05 451.24 992.04 451.25 992.04 451.26 992.03 451.26 992.01 451.26 992.01 451.26 992 451.26 991.98 451.26 991.98 451.26L985.05 448.92C985.05 448.92 985.04 448.92 985.03 448.92 985.02 448.91 985.02 448.9 985.01 448.89 985 448.87 985 448.85 985.01 448.83L999.53 405.7C1007.09 383.24 1017.04 361.65 1029.21 341.31L1050.64 305.52C1050.65 305.5 1050.66 305.49 1050.68 305.48 1050.7 305.48 1050.72 305.48 1050.74 305.5L1057 309.25C1057.02 309.25 1057.03 309.27 1057.04 309.29 1057.05 309.31 1057.04 309.33 1057.03 309.35L1035.61 345.13C1023.71 365.02 1013.98 386.12 1006.59 408.08L992.07 451.21Z" fill="#ffffff" opacity="1" stroke-width="2" stroke="#344f5b"></path><path d="M1051.65 549.52C1049.38 551.01 1047.5 553.03 1046.2 555.41 1044.89 557.8 1044.2 560.46 1044.18 563.18 1047.2 562.92 1049.92 562.66 1052.25 562.45 1055.53 562.14 1058.56 560.55 1060.69 558.03L1051.65 549.52Z" fill="#ffffff" opacity="0.6" stroke-width="2" stroke="#344f5b"></path></g></svg>