<svg xmlns="http://www.w3.org/2000/svg" height="1000" width="1000" version="1.1" xmlns:xlink="http://www.w3.org/1999/xlink" xmlns:svgjs="http://svgjs.com/svgjs"><rect fill="#fff" width="1000" height="1000"></rect><g><path d="M588.13 461.33C608.21 491.01 619.9 526.68 619.9 565.05 619.9 667.27 537.17 750 434.95 750 332.73 750 250 667.27 250 565.05 250 462.83 332.73 380.1 434.95 380.1 485.91 380.1 532.37 400.78 565.65 434.35" fill="#fff" opacity="1" stroke-width="2" stroke="#000000"></path><path d="M588.13 461.33C608.21 491.01 619.9 526.68 619.9 565.05 619.9 667.27 537.17 750 434.95 750 332.73 750 250 667.27 250 565.05 250 462.83 332.73 380.1 434.95 380.1 485.91 380.1 532.37 400.78 565.65 434.35" stroke="#000000" stroke-width="2" stroke-linecap="round" stroke-linejoin="round" opacity="1" fill="none"></path><path d="M330.34 488.61C339.93 475.72 351.62 464.33 365.41 455.64" stroke="#000000" stroke-width="2" stroke-linecap="round" stroke-linejoin="round" opacity="1" fill="none"></path><path d="M434.95 694.54C363.31 694.54 305.46 636.69 305.46 565.05 305.46 544.06 310.55 523.98 319.24 506.59" stroke="#000000" stroke-width="2" stroke-linecap="round" stroke-linejoin="round" opacity="1" fill="none"></path><path d="M384.89 445.74C400.48 439.15 417.27 435.55 435.25 435.55 506.89 435.55 564.75 493.41 564.75 565.05 564.75 622.9 526.98 671.76 474.82 688.55" stroke="#000000" stroke-width="2" stroke-linecap="round" stroke-linejoin="round" opacity="1" fill="none"></path><path d="M434.95 629.5C470.53 629.5 499.4 600.63 499.4 565.05 499.4 529.47 470.53 500.6 434.95 500.6 399.34 500.6 370.5 529.47 370.5 565.05 370.5 600.63 399.34 629.5 434.95 629.5Z" fill="#fff" stroke="#000000" stroke-width="2" stroke-linecap="round" stroke-linejoin="round" opacity="1"></path><path d="M434.95 565.05L693.94 306.35" stroke="#000000" stroke-width="2" stroke-linecap="round" stroke-linejoin="round" opacity="1" fill="none"></path><path d="M620.8 323.14L693.94 250V306.35L620.8 379.5V323.14Z" fill="#fff" stroke="#000000" stroke-width="2" stroke-linecap="round" stroke-linejoin="round" opacity="1"></path><path d="M676.86 379.5L750 306.35H693.94L620.8 379.5H676.86Z" fill="#fff" stroke="#000000" stroke-width="2" stroke-linecap="round" stroke-linejoin="round" opacity="1"></path><path d="M727.52 328.84H671.16" stroke="#000000" stroke-width="2" stroke-linecap="round" stroke-linejoin="round" opacity="1" fill="none"></path><path d="M644.18 317.15V355.82" stroke="#000000" stroke-width="2" stroke-linecap="round" stroke-linejoin="round" opacity="1" fill="none"></path><path d="M708.03 348.02H677.16" stroke="#000000" stroke-width="2" stroke-linecap="round" stroke-linejoin="round" opacity="1" fill="none"></path></g></svg>